<?xml version="1.0" encoding="UTF-8" standalone="no"?>
<!-- Created with Inkscape (http://www.inkscape.org/) -->

<svg
   width="297mm"
   height="210mm"
   viewBox="0 0 297 210"
   version="1.1"
   id="svg1"
   xmlns="http://www.w3.org/2000/svg"
   xmlns:svg="http://www.w3.org/2000/svg">
  <defs
     id="defs1">
    <clipPath
       clipPathUnits="userSpaceOnUse"
       id="clipPath3">
      <rect
         style="fill:#000000;fill-opacity:0;stroke-width:2.60917"
         id="rect3"
         width="296.99915"
         height="176.85121"
         x="0.00013268997"
         y="19.802948"
         ry="40.213326"
         rx="26.458334" />
    </clipPath>
  </defs>
  <g
     id="g3"
     clip-path="url(#clipPath3)">
    <rect
       style="fill:#1f1f1f;fill-opacity:1;stroke-width:2.8432"
       id="rect17"
       width="296.99915"
       height="209.99994"
       x="0.00013268997"
       y="3.0305386"
       transform="translate(0,-3.2107844)" />
    <g
       id="g48"
       style="stroke:#ffe680">
      <path
         style="fill:none;stroke:#ffe680;stroke-width:3.57187;stroke-dasharray:none"
         d="m 210.83285,78.516399 h 63.78496 c 5.03002,0 9.84599,-3.638741 9.84599,-8.775785 V -6.4588699"
         id="path45" />
      <path
         style="fill:none;stroke:#ffe680;stroke-width:3.57187;stroke-dasharray:none"
         d="M 210.66641,96.354324 H 303.2049"
         id="path46" />
      <path
         style="fill:none;stroke:#ffe680;stroke-width:3.57187;stroke-dasharray:none"
         d="m 209.98903,128.82603 h 34.07738 c 5.62333,0 9.55966,3.82387 9.55966,9.4472 v 79.85128"
         id="path47" />
      <path
         style="fill:none;stroke:#ffe680;stroke-width:3.57187;stroke-dasharray:none"
         d="m 210.65163,112.70011 c 0,0 45.02035,0.13224 51.50021,0 6.47985,-0.13224 10.01141,3.5577 10.01141,10.1698 v 91.90823"
         id="path48" />
      <path
         style="fill:none;stroke:#ffe680;stroke-width:3.57187;stroke-dasharray:none"
         d="m 172.18685,167.41566 v 17.58138 c 0,4.94117 4.02189,8.3885 9.30779,8.3885 h 12.5253 c 4.59644,0 8.27359,3.33242 8.27359,8.27359 v 17.00683"
         id="path44" />
      <path
         style="fill:none;stroke:#ffe680;stroke-width:3.57187;stroke-dasharray:none"
         d="m 188.70819,167.6905 v 5.50513 c 0,5.15375 2.81113,7.49636 8.4334,7.49636 h 12.76723 c 5.03662,0 7.84775,3.27966 7.84775,7.96488 v 25.76873"
         id="path43" />
      <path
         style="fill:none;stroke:#ffe680;stroke-width:3.57187;stroke-dasharray:none"
         d="m 210.77956,145.35045 h 13.65843 c 6.35276,0 10.48205,3.65283 10.48205,9.2115 v 61.62175"
         id="path42" />
      <path
         style="fill:none;stroke:#ffe680;stroke-width:3.57187;stroke-dasharray:none"
         d="m 200.49389,62.305619 h 59.86751 c 5.25153,0 8.06289,-3.086314 8.06483,-6.631102 l 0.0323,-59.0193785"
         id="path41" />
      <path
         style="fill:none;stroke:#ffe680;stroke-width:3.57187;stroke-dasharray:none"
         d="m 188.70607,40.419994 v -4.973403 c 0,-4.117838 4.26662,-7.685136 8.99451,-7.685136 h 45.80282"
         id="path40" />
      <path
         style="fill:none;stroke:#ffe680;stroke-width:3.57187;stroke-dasharray:none"
         d="M 172.1819,42.247265 V -0.38849145"
         id="path39-8-3-7" />
      <path
         style="fill:none;stroke:#ffe680;stroke-width:3.57187;stroke-dasharray:none"
         d="M 156.05935,41.267079 V -1.3686769"
         id="path39-8-3" />
      <path
         style="fill:none;stroke:#ffe680;stroke-width:3.57187;stroke-dasharray:none"
         d="M 139.69507,41.279384 V -1.3563719"
         id="path39-8" />
      <path
         style="fill:none;stroke:#ffe680;stroke-width:3.57187;stroke-dasharray:none"
         d="M 121.87573,40.523526 V -2.1122302"
         id="path39" />
      <circle
         style="fill:none;stroke:#ffe680;stroke-width:3.57187;stroke-dasharray:none"
         id="path38-0"
         cx="247.02019"
         cy="28.108248"
         r="4.4553823" />
      <circle
         style="fill:none;stroke:#ffe680;stroke-width:3.57187;stroke-dasharray:none"
         id="path38"
         cx="156.14723"
         cy="183.36682"
         r="4.4553823" />
      <path
         style="fill:none;stroke:#ffe680;stroke-width:3.57187;stroke-dasharray:none"
         d="m 156.05866,162.05927 v 17.49291"
         id="path37" />
      <path
         style="fill:none;stroke:#ffe680;stroke-width:3.57187;stroke-dasharray:none"
         d="m 139.69061,167.92911 0.006,43.44912"
         id="path36" />
      <path
         style="fill:none;stroke:#ffe680;stroke-width:3.57187;stroke-dasharray:none"
         d="m 121.87731,167.84259 -0.1189,17.60911 c -0.0263,3.89245 -3.24413,5.69644 -6.85829,5.74613 l -6.74294,0.0927 c -3.7995,0.0522 -6.09397,3.9852 -6.09397,7.41436 v 15.03765"
         id="path35" />
      <path
         style="fill:none;stroke:#ffe680;stroke-width:3.57187;stroke-dasharray:none"
         d="m 105.66046,167.64971 v 4.60483 c 0,3.24043 -2.72879,6.48086 -6.992516,6.48086 h -4.604825 c -5.628119,0 -8.527451,2.89933 -8.527451,8.3569 v 25.75291"
         id="path34" />
      <path
         style="fill:none;stroke:#ffe680;stroke-width:3.57188;stroke-dasharray:none"
         d="M 105.66488,40.480436 V 36.02113 c 0,-4.229912 -3.54858,-6.822504 -7.435433,-6.848787 H -4.2383513 l -2.9219778,2.504552"
         id="path33" />
      <path
         style="fill:none;stroke:#ffe680;stroke-width:3.57187"
         d="M 84.513232,62.297885 H 64.899683 c -7.329689,0 -8.471543,-2.106579 -8.471543,-7.781309 0,-5.674733 -2.351279,-8.085871 -8.359818,-8.085871 -6.008539,0 -55.0782856,0.230079 -55.0782856,0.230079"
         id="path27" />
      <path
         style="fill:none;stroke:#ffe680;stroke-width:3.57187"
         d="m 85.412324,128.83208 c 0,0 -14.10744,0 -21.581323,0.202 -7.473884,0.20199 -10.099843,4.64593 -10.099843,12.7258 v 70.69889"
         id="path32" />
      <path
         style="fill:none;stroke:#ffe680;stroke-width:3.57187"
         d="M 84.118462,112.71245 H 49.910774 c -7.366207,0 -11.61338,4.44655 -11.61338,12.22199 v 87.21917"
         id="path31" />
      <path
         style="fill:none;stroke:#ffe680;stroke-width:3.57187"
         d="M 84.291657,96.332626 H 34.758666 c -7.980057,0 -12.654803,4.060894 -12.654803,12.245564 v 104.18402"
         id="path30" />
      <path
         style="fill:none;stroke:#ffe680;stroke-width:3.57187"
         d="m 84.041124,145.35015 h -6.345563 c -5.384115,0 -7.883884,2.49977 -7.883884,8.84534 0,6.34556 2e-6,58.4561 2e-6,58.4561"
         id="path29" />
      <path
         style="fill:none;stroke:#ffe680;stroke-width:3.57187"
         d="m 84.415231,78.517091 c 0,0 -59.802135,0.192289 -67.686017,0.192289 -7.8838823,0 -10.1913602,3.461217 -10.1913602,10.96052 v 121.52716 0.96145"
         id="path28" />
    </g>
    <g
       id="g26">
      <g
         id="g7"
         transform="translate(7.3128373,-0.91410467)">
        <path
           style="fill:#999999;stroke:#999999;stroke-width:3.57187"
           d="M 99.174481,63.217171 H 76.67713 Z"
           id="path3" />
        <path
           style="fill:#999999;stroke:#999999;stroke-width:3.57187"
           d="M 99.222304,79.430852 H 76.724953 Z"
           id="path3-5" />
        <path
           style="fill:#999999;stroke:#999999;stroke-width:3.57187"
           d="M 99.174481,97.248741 H 76.67713 Z"
           id="path4" />
        <path
           style="fill:#999999;stroke:#999999;stroke-width:3.57187"
           d="M 99.222304,113.61641 H 76.724953 Z"
           id="path5" />
        <path
           style="fill:#999999;stroke:#999999;stroke-width:3.57187"
           d="M 99.174481,129.74041 H 76.67713 Z"
           id="path6" />
        <path
           style="fill:#999999;stroke:#999999;stroke-width:3.57187"
           d="M 99.222304,146.26208 H 76.724953 Z"
           id="path7" />
      </g>
      <g
         id="g13"
         transform="translate(111.70359,-0.91410467)">
        <path
           style="fill:#999999;stroke:#999999;stroke-width:3.57187"
           d="M 99.174481,63.217171 H 76.67713 Z"
           id="path8" />
        <path
           style="fill:#999999;stroke:#999999;stroke-width:3.57187"
           d="M 99.222304,79.430852 H 76.724953 Z"
           id="path9" />
        <path
           style="fill:#999999;stroke:#999999;stroke-width:3.57187"
           d="M 99.174481,97.248741 H 76.67713 Z"
           id="path10" />
        <path
           style="fill:#999999;stroke:#999999;stroke-width:3.57187"
           d="M 99.222304,113.61641 H 76.724953 Z"
           id="path11" />
        <path
           style="fill:#999999;stroke:#999999;stroke-width:3.57187"
           d="M 99.174481,129.74041 H 76.67713 Z"
           id="path12" />
        <path
           style="fill:#999999;stroke:#999999;stroke-width:3.57187"
           d="M 99.222304,146.26208 H 76.724953 Z"
           id="path13" />
      </g>
      <g
         id="g19"
         transform="rotate(-90,90.966263,48.522184)">
        <path
           style="fill:#999999;stroke:#999999;stroke-width:3.57187"
           d="M 99.174481,63.217171 H 76.67713 Z"
           id="path14" />
        <path
           style="fill:#999999;stroke:#999999;stroke-width:3.57187"
           d="M 99.222304,79.430852 H 76.724953 Z"
           id="path15" />
        <path
           style="fill:#999999;stroke:#999999;stroke-width:3.57187"
           d="M 99.174481,97.248741 H 76.67713 Z"
           id="path16" />
        <path
           style="fill:#999999;stroke:#999999;stroke-width:3.57187"
           d="M 99.222304,113.61641 H 76.724953 Z"
           id="path17" />
        <path
           style="fill:#999999;stroke:#999999;stroke-width:3.57187"
           d="M 99.174481,129.74041 H 76.67713 Z"
           id="path18" />
        <path
           style="fill:#999999;stroke:#999999;stroke-width:3.57187"
           d="M 99.222304,146.26208 H 76.724953 Z"
           id="path19" />
      </g>
      <g
         id="g25"
         transform="rotate(-90,143.52728,101.0832)">
        <path
           style="fill:#999999;stroke:#999999;stroke-width:3.57187"
           d="M 99.174481,63.217171 H 76.67713 Z"
           id="path20" />
        <path
           style="fill:#999999;stroke:#999999;stroke-width:3.57187"
           d="M 99.222304,79.430852 H 76.724953 Z"
           id="path21" />
        <path
           style="fill:#999999;stroke:#999999;stroke-width:3.57187"
           d="M 99.174481,97.248741 H 76.67713 Z"
           id="path22" />
        <path
           style="fill:#999999;stroke:#999999;stroke-width:3.57187"
           d="M 99.222304,113.61641 H 76.724953 Z"
           id="path23" />
        <path
           style="fill:#999999;stroke:#999999;stroke-width:3.57187"
           d="M 99.174481,129.74041 H 76.67713 Z"
           id="path24" />
        <path
           style="fill:#999999;stroke:#999999;stroke-width:3.57187"
           d="M 99.222304,146.26208 H 76.724953 Z"
           id="path25" />
      </g>
      <rect
         style="fill:#333333;stroke:#999999;stroke-width:4.31686"
         id="rect1"
         width="97.322899"
         height="97.322899"
         x="98.440369"
         y="55.386189" />
      <circle
         style="fill:#999999;fill-opacity:1;stroke:none;stroke-width:10.3584;stroke-dasharray:none"
         id="path49"
         cx="112.5611"
         cy="68.712662"
         r="4.8720465" />
    </g>
    <g
       id="g27"
       transform="translate(-1.405936)">
      <path
         d="m 136.51307,114.51148 q -2.86081,2.10013 -6.33347,2.10013 -4.54753,0 -6.89571,-3.07579 -2.34818,-3.09232 -2.34818,-9.02891 0,-5.738158 2.2655,-8.929697 2.28203,-3.19154 6.97839,-3.19154 1.68672,0 3.34037,0.429948 1.65365,0.429949 2.66237,1.141017 l -0.89297,2.133205 q -2.33164,-1.322918 -5.10977,-1.322918 -3.20808,0 -4.79558,2.34818 -1.57096,2.348179 -1.57096,7.391805 0,9.72345 6.36654,9.72345 2.39779,0 3.62149,-1.00873 v -5.75469 h -4.20027 v -2.34818 h 6.91225 z m 6.87917,-21.679322 h 5.92006 q 3.3569,0 5.37435,1.68672 2.01745,1.686721 2.01745,4.646749 0,2.976563 -2.01745,4.762503 -2.00091,1.7694 -5.25859,1.7694 h -3.32384 v 10.46759 h -2.71198 z m 2.71198,10.500662 h 2.9435 q 4.77904,0 4.77904,-4.001828 0,-1.852085 -1.30638,-2.993102 -1.28985,-1.141016 -3.34037,-1.141016 h -3.07579 z m 30.24521,5.49011 q 0,4.05143 -1.65364,5.92006 -1.63711,1.86862 -4.99402,1.86862 -6.76342,0 -6.76342,-7.72254 V 92.832158 h 2.71199 v 15.808872 q 0,5.58933 4.05143,5.58933 2.03399,0 2.97657,-1.32292 0.95911,-1.32292 0.95911,-4.29949 V 92.832158 h 2.71198 z"
         id="text26"
         style="font-size:33.8667px;font-family:'Andale Mono';-inkscape-font-specification:'Andale Mono, Normal';fill:none;stroke:#999999;stroke-width:2.38125"
         aria-label="GPU" />
      <path
         d="m 136.51307,114.51148 q -2.86081,2.10013 -6.33347,2.10013 -4.54753,0 -6.89571,-3.07579 -2.34818,-3.09232 -2.34818,-9.02891 0,-5.738158 2.2655,-8.929697 2.28203,-3.19154 6.97839,-3.19154 1.68672,0 3.34037,0.429948 1.65365,0.429949 2.66237,1.141017 l -0.89297,2.133205 q -2.33164,-1.322918 -5.10977,-1.322918 -3.20808,0 -4.79558,2.34818 -1.57096,2.348179 -1.57096,7.391805 0,9.72345 6.36654,9.72345 2.39779,0 3.62149,-1.00873 v -5.75469 h -4.20027 v -2.34818 h 6.91225 z m 6.87917,-21.679322 h 5.92006 q 3.3569,0 5.37435,1.68672 2.01745,1.686721 2.01745,4.646749 0,2.976563 -2.01745,4.762503 -2.00091,1.7694 -5.25859,1.7694 h -3.32384 v 10.46759 h -2.71198 z m 2.71198,10.500662 h 2.9435 q 4.77904,0 4.77904,-4.001828 0,-1.852085 -1.30638,-2.993102 -1.28985,-1.141016 -3.34037,-1.141016 h -3.07579 z m 30.24521,5.49011 q 0,4.05143 -1.65364,5.92006 -1.63711,1.86862 -4.99402,1.86862 -6.76342,0 -6.76342,-7.72254 V 92.832158 h 2.71199 v 15.808872 q 0,5.58933 4.05143,5.58933 2.03399,0 2.97657,-1.32292 0.95911,-1.32292 0.95911,-4.29949 V 92.832158 h 2.71198 z"
         id="text27"
         style="font-size:33.8667px;font-family:'Andale Mono';-inkscape-font-specification:'Andale Mono, Normal';fill:#ffe680;stroke-width:3.57187"
         aria-label="GPU" />
    </g>
  </g>
</svg>
