<svg viewBox="0 0 256 64" xmlns="http://www.w3.org/2000/svg">
    <defs>
        <mask id="mask-line">
            <rect x="0" y="0" width="256" height="64" fill="white" />
            <path d="M 0 18 C 17 18, 27 47, 64.2 52.2 S 93.5 3.5, 133 20 S 157 63.2, 200 42.2 S 244.2 57.8, 256 59.5"
                  fill="none" stroke="black" stroke-width="3" />
            <circle cx="31" cy="38" r="6" fill="white" />
            <circle cx="96" cy="33" r="8" fill="white" />
            <text x="32" y="47" fill='none' stroke='white' stroke-width="6" text-anchor='middle' font-family='Trebuchet MS' font-size="54">a</text>
            <text x="96" y="47" fill='none' stroke='white' stroke-width="6" text-anchor='middle' font-family='Trebuchet MS' font-size="54">p</text>
            <text x="160" y="47" fill='none' stroke='white' stroke-width="6" text-anchor='middle' font-family='Trebuchet MS' font-size="54">g</text>
            <text x="224" y="47" fill='none' stroke='white' stroke-width="6" text-anchor='middle' font-family='Trebuchet MS' font-size="54">l</text>
        </mask>
        <mask id="mask-A">
            <rect x="0" y="0" width="64" height="64" fill="white" mask="url(#mask-line)" />
            <text x="32" y="47" fill="black" text-anchor='middle' font-family='Trebuchet MS' font-size="54">a</text>
        </mask>
        <mask id="mask-P">
            <rect x="64" y="0" width="64" height="64" fill="white" mask="url(#mask-line)" />
            <text x="96" y="47" fill="black" text-anchor='middle' font-family='Trebuchet MS' font-size="54">p</text>
        </mask>
        <mask id="mask-G">
            <rect x="128" y="0" width="64" height="64" fill="white" mask="url(#mask-line)" />
            <text x="160" y="47" fill="black" text-anchor='middle' font-family='Trebuchet MS' font-size="54">g</text>
        </mask>
        <mask id="mask-L">
            <rect x="192" y="0" width="64" height="64" fill="white" mask="url(#mask-line)" />
            <text x="224" y="47" fill="black" text-anchor='middle' font-family='Trebuchet MS' font-size="54">l</text>
        </mask>
    </defs>
    <path d="M 2 32 L 2 4 A 2 2 0 0 1 4 2 L 32 2 A 30 30 0 0 1 62 32 L 62 60 A 2 2 0 0 1 60 62 L 32 62 A 30 30 0 0 1 2 32"
          fill='#d4b126' mask='url(#mask-A)'/>
    <path d="M 66 32 A 30 30 0 0 1 96 2 L 124 2 A 2 2 0 0 1 126 4 L 126 32 A 30 30 0 0 1 96 62 L 68 62 A 2 2 0 0 1 66 60 L 66 32"
          fill='#eb8e2a' mask='url(#mask-P)' />
    <path d="M 130 32 L 130 4 A 2 2 0 0 1 132 2 L 160 2 A 30 30 0 0 1 190 32 L 190 60 A 2 2 0 0 1 188 62 L 160 62 A 30 30 0 0 1 130 32"
          fill='#F5512C' mask='url(#mask-G)' />
    <path d="M 194 32 A 30 30 0 0 1 224 2 L 252 2 A 2 2 0 0 1 254 4 L 254 32 A 30 30 0 0 1 224 62 L 196 62 A 2 2 0 0 1 194 60 L 194 32"
          fill='#f52e5f' mask='url(#mask-L)' />
</svg>