<?xml version="1.0" encoding="UTF-8" standalone="no"?>
<!-- Created with Inkscape (http://www.inkscape.org/) -->

<svg
   width="297mm"
   height="210mm"
   viewBox="0 0 297 210"
   version="1.1"
   id="svg1"
   xmlns="http://www.w3.org/2000/svg"
   xmlns:svg="http://www.w3.org/2000/svg">
  <defs
     id="defs1">
    <clipPath
       clipPathUnits="userSpaceOnUse"
       id="clipPath81">
      <text
         xml:space="preserve"
         style="font-style:normal;font-variant:normal;font-weight:normal;font-stretch:normal;font-size:16.9333px;font-family:'Andale Mono';-inkscape-font-specification:'Andale Mono, Normal';font-variant-ligatures:normal;font-variant-caps:normal;font-variant-numeric:normal;font-variant-east-asian:normal;text-align:start;writing-mode:lr-tb;direction:ltr;text-anchor:start;fill:#ffffff;fill-opacity:1;stroke-width:2.11667"
         x="55.55661"
         y="199.84752"
         id="text82"><tspan
           id="tspan82"
           style="fill:#ffffff;fill-opacity:1;stroke-width:2.11667"
           x="55.55661"
           y="199.84752">}</tspan></text>
    </clipPath>
    <clipPath
       clipPathUnits="userSpaceOnUse"
       id="clipPath83">
      <rect
         style="fill:#000000;fill-opacity:0;stroke-width:2.60917"
         id="rect83"
         width="296.99915"
         height="176.85121"
         x="0.00013268997"
         y="23.013733"
         ry="40.213326"
         rx="26.458334" />
    </clipPath>
    <clipPath
       clipPathUnits="userSpaceOnUse"
       id="clipPath112">
      <path
         d="m 64.39304,21.30682 -0.338997,1.050063 q -0.917771,-0.264582 -1.645372,-0.264582 -0.694532,0 -0.959115,0.396874 -0.256312,0.388606 -0.256312,1.579229 V 24.2255 h 2.893872 v 1.116208 h -2.893872 v 7.499269 H 59.9034 V 25.341708 H 57.737129 V 24.2255 H 59.9034 v -0.289388 q 0,-1.645374 0.562239,-2.306831 0.56224,-0.661457 1.943032,-0.661457 0.892966,0 1.984369,0.338996 z m 10.062417,11.534157 h -1.289841 v -1.273304 q -1.38906,1.48001 -2.926948,1.48001 -2.422586,0 -2.422586,-2.935216 V 24.2255 h 1.289841 v 5.514898 q 0,1.099673 0.347263,1.645374 0.347266,0.537435 1.174086,0.537435 1.182357,0 2.538344,-1.471743 V 24.2255 h 1.289841 z m 10.178169,0 h -1.289841 v -5.523166 q 0,-1.149281 -0.372071,-1.661911 -0.363799,-0.520897 -1.149281,-0.520897 -1.182354,0 -2.538341,1.471742 v 6.234232 H 77.994251 V 24.2255 h 1.289841 v 1.265036 q 1.38906,-1.471742 2.926948,-1.471742 2.422586,0 2.422586,2.926948 z m 10.128562,-0.289388 q -1.124477,0.512631 -2.472195,0.512631 -2.033982,0 -3.249409,-1.231964 -1.207159,-1.240232 -1.207159,-3.290749 0,-2.050517 1.215427,-3.282481 1.223695,-1.240232 3.208068,-1.240232 1.298109,0 2.472195,0.454752 l -0.338997,1.066599 q -1.174086,-0.405142 -2.116662,-0.405142 -1.422133,0 -2.257224,0.917772 -0.82682,0.917771 -0.82682,2.488732 0,1.438669 0.859893,2.422585 0.859896,0.975651 2.240688,0.975651 1.091403,0 2.248953,-0.42168 z m 10.277392,-0.09922 q -1.29811,0.595312 -2.55488,0.595312 -2.30683,0 -2.30683,-2.439125 v -5.26685 H 98.524224 V 24.2255 h 1.653646 v -2.356441 h 1.25676 V 24.2255 h 2.92695 v 1.116208 h -2.92695 v 4.927855 q 0,0.78548 0.34727,1.223696 0.34726,0.429948 0.94258,0.429948 1.05833,0 2.09185,-0.471289 z m 7.30083,-11.484548 q 0.3638,0 0.62011,0.264582 0.25632,0.256315 0.25632,0.620116 0,0.380338 -0.25632,0.636653 -0.24804,0.256314 -0.62011,0.256314 -0.339,0 -0.60358,-0.264582 -0.25632,-0.272851 -0.25632,-0.628385 0,-0.355533 0.25632,-0.620116 0.26458,-0.264582 0.60358,-0.264582 z m 0.62838,11.873154 h -1.28984 v -7.49927 h -2.53834 V 24.2255 h 3.82818 z m 8.97101,-8.822184 q 1.77767,0 2.82773,1.240232 1.05007,1.240232 1.05007,3.265944 0,2.042248 -1.05007,3.290748 -1.05006,1.2485 -2.82773,1.2485 -1.78593,0 -2.83599,-1.240232 -1.0418,-1.2485 -1.0418,-3.299016 0,-2.03398 1.05006,-3.265944 1.05007,-1.240232 2.82773,-1.240232 z m 0,7.920947 q 1.17409,0 1.85208,-0.992184 0.678,-0.992186 0.678,-2.40605 0,-1.488279 -0.66973,-2.447391 Q 123.13043,25.135 121.9398,25.135 q -1.19889,0 -1.86034,0.950844 -0.66146,0.942577 -0.66146,2.45566 0,1.438669 0.66972,2.422586 0.66973,0.975648 1.85208,0.975648 z m 13.50199,0.901237 h -1.28984 V 27.31781 q 0,-1.149281 -0.37207,-1.661911 -0.3638,-0.520897 -1.14928,-0.520897 -1.18236,0 -2.53834,1.471742 v 6.234233 h -1.28984 V 24.2255 h 1.28984 v 1.265036 q 1.38906,-1.471742 2.92694,-1.471742 2.42259,0 2.42259,2.926948 z m 20.71188,-8.615478 -3.26594,8.615478 h -1.17409 l -3.24941,-8.615478 h 1.4056 l 2.43912,6.854348 2.43912,-6.854348 z m 6.9949,-3.257676 q 0.3638,0 0.62012,0.264582 0.25631,0.256315 0.25631,0.620116 0,0.380338 -0.25631,0.636653 -0.24805,0.256314 -0.62012,0.256314 -0.33899,0 -0.60358,-0.264582 -0.25631,-0.272851 -0.25631,-0.628385 0,-0.355533 0.25631,-0.620116 0.26459,-0.264582 0.60358,-0.264582 z m 0.62839,11.873154 h -1.28984 v -7.49927 h -2.53835 V 24.2255 h 3.82819 z m 11.41013,-7.383515 q -1.08313,-0.355533 -2.04225,-0.355533 -1.05006,0 -1.66191,0.355533 -0.61184,0.347265 -0.61184,0.934308 0,0.37207 0.28112,0.653189 0.28111,0.272851 1.12447,0.512629 l 1.23197,0.355534 q 0.85162,0.239778 1.38906,0.578774 0.53743,0.330729 0.80201,0.810285 0.27285,0.471288 0.27285,1.099674 0,1.231961 -1.03352,1.951297 -1.03353,0.711065 -2.6293,0.711065 -1.58749,0 -2.62102,-0.479555 l 0.24805,-1.116208 q 1.08313,0.512628 2.32337,0.512628 1.07486,0 1.74459,-0.396873 0.67799,-0.405143 0.67799,-1.066599 0,-0.446485 -0.33899,-0.79375 -0.33073,-0.355533 -1.57097,-0.735871 -1.00045,-0.305924 -1.47174,-0.454752 -0.47129,-0.157096 -0.87643,-0.454751 -0.40514,-0.297656 -0.62011,-0.711067 -0.20671,-0.41341 -0.20671,-0.926039 0,-1.116209 0.97565,-1.769398 0.97565,-0.653189 2.58795,-0.653189 1.0418,0 2.3151,0.355533 z m 11.04634,7.383515 h -1.28984 v -1.273304 q -1.38906,1.48001 -2.92695,1.48001 -2.42259,0 -2.42259,-2.935217 V 24.2255 h 1.28984 v 5.514898 q 0,1.099673 0.34727,1.645374 0.34726,0.537435 1.17409,0.537435 1.18235,0 2.53834,-1.471743 V 24.2255 h 1.28984 z m 10.39314,0 H 195.345 q -0.15709,-0.520898 -0.15709,-1.389059 -1.09968,1.612299 -2.9931,1.612299 -0.95911,0 -1.69498,-0.677992 -0.7276,-0.686261 -0.7276,-1.76113 0,-0.636652 0.25631,-1.124477 0.25632,-0.487824 0.75241,-0.818553 0.49609,-0.338996 1.20716,-0.529165 0.71106,-0.198437 1.68671,-0.272851 l 1.44694,-0.115755 v -0.413411 q 0,-2.215881 -2.06705,-2.215881 -0.48783,0 -1.24024,0.214974 -0.74413,0.206705 -1.28157,0.496092 l -0.339,-0.92604 q 1.76113,-0.901235 3.27422,-0.901235 2.94348,0 2.94348,3.117117 v 3.704159 q 0,1.124476 0.21497,2.000908 z m -1.50481,-2.554878 v -1.562693 q -1.74459,0.157096 -2.39778,0.297656 -0.64492,0.132291 -1.12448,0.504361 -0.47129,0.37207 -0.47129,1.008721 0,0.578776 0.40515,0.93431 0.40514,0.355531 1.03352,0.355531 0.68626,0 1.36426,-0.40514 0.67799,-0.413412 1.19062,-1.132746 z m 10.82308,2.554878 h -3.52226 V 22.290738 h -2.24895 v -1.116209 h 3.53879 v 10.55024 h 2.23242 z m 8.0119,-11.873154 q 0.3638,0 0.62011,0.264582 0.25632,0.256315 0.25632,0.620116 0,0.380338 -0.25632,0.636653 -0.24804,0.256314 -0.62011,0.256314 -0.339,0 -0.60358,-0.264582 -0.25632,-0.272851 -0.25632,-0.628385 0,-0.355533 0.25632,-0.620116 0.26458,-0.264582 0.60358,-0.264582 z m 0.62838,11.873154 h -1.28984 v -7.49927 h -2.53834 V 24.2255 h 3.82818 z m 12.19562,0 h -6.62284 v -0.694531 l 4.91132,-6.788202 h -4.79556 V 24.2255 h 6.50708 v 0.636652 l -4.91132,6.846081 h 4.91132 z m 10.53371,-4.266398 h -5.91178 q 0,1.463473 0.84336,2.414318 0.85163,0.950843 2.08359,0.950843 1.17409,0 2.42259,-0.421677 l 0.22324,1.033526 q -1.14101,0.512628 -2.66237,0.512628 -1.91822,0 -3.09231,-1.231964 -1.17408,-1.231963 -1.17408,-3.32382 0,-2.050517 1.05006,-3.265944 1.05833,-1.223696 2.72851,-1.223696 1.48828,0 2.48873,1.132745 1.00046,1.132746 1.00046,3.017898 z m -1.4056,-1.050063 q 0,-1.008722 -0.62838,-1.694984 -0.62839,-0.69453 -1.4056,-0.69453 -1.00045,0 -1.66191,0.661457 -0.65319,0.661457 -0.7276,1.728057 z m 10.81482,7.044516 -0.50436,0.711068 q -1.84381,-1.397328 -2.81119,-3.249409 -0.96738,-1.852079 -0.96738,-3.910864 0,-2.075322 0.95911,-3.910865 0.95912,-1.843811 2.81946,-3.241139 l 0.50436,0.711066 q -1.51308,1.355987 -2.1828,2.844265 -0.66146,1.48001 -0.66146,3.580136 0,2.17454 0.68626,3.66282 0.69453,1.480008 2.158,2.802922 z m 10.62465,-1.728055 h -1.28985 v -1.240234 q -0.39687,0.636654 -1.14101,1.050065 -0.73587,0.413409 -1.55442,0.413409 -1.48001,0 -2.33991,-1.314646 -0.85989,-1.322914 -0.85989,-3.348625 0,-1.893421 0.89297,-3.133653 0.90123,-1.2485 2.38124,-1.2485 1.62884,0 2.62102,1.322914 v -4.167179 h 1.28985 z m -1.28985,-2.637561 V 26.62328 q -0.92604,-1.488278 -2.23241,-1.488278 -1.0666,0 -1.68672,0.950844 -0.62011,0.942577 -0.62011,2.389514 0,1.488278 0.57877,2.463927 0.58704,0.967381 1.60403,0.967381 0.48783,0 0.98392,-0.264581 0.49609,-0.264584 0.93431,-0.79375 0.43821,-0.529166 0.43821,-0.644921 z m 11.69952,2.637561 h -1.28156 q -0.15711,-0.520898 -0.15711,-1.389059 -1.09966,1.612299 -2.99308,1.612299 -0.95912,0 -1.69499,-0.677992 -0.7276,-0.686261 -0.7276,-1.76113 0,-0.636652 0.25631,-1.124477 0.25632,-0.487824 0.75241,-0.818553 0.49609,-0.338996 1.20716,-0.529165 0.71107,-0.198437 1.68672,-0.272851 l 1.44692,-0.115755 v -0.413411 q 0,-2.215881 -2.06704,-2.215881 -0.48782,0 -1.24023,0.214974 -0.74414,0.206705 -1.28157,0.496092 l -0.339,-0.92604 q 1.76113,-0.901235 3.27422,-0.901235 2.94347,0 2.94347,3.117117 v 3.704159 q 0,1.124476 0.21497,2.000908 z m -1.50482,-2.554878 v -1.562693 q -1.74458,0.157096 -2.39777,0.297656 -0.64492,0.132291 -1.12447,0.504361 -0.47129,0.37207 -0.47129,1.008721 0,0.578776 0.40514,0.93431 0.40514,0.355531 1.03353,0.355531 0.68626,0 1.36424,-0.40514 0.67799,-0.413412 1.19062,-1.132746 z m 11.53417,2.166272 q -1.2981,0.595312 -2.55487,0.595312 -2.30685,0 -2.30685,-2.439125 V 25.341707 H 271.272 V 24.2255 h 1.65362 v -2.356441 h 1.25677 V 24.2255 h 2.92695 v 1.116208 h -2.92695 v 4.927855 q 0,0.78548 0.34729,1.223696 0.34724,0.429948 0.94255,0.429948 1.05834,0 2.09188,-0.471289 z m 10.29393,0.388606 h -1.28156 q -0.15711,-0.520898 -0.15711,-1.389059 -1.09966,1.612299 -2.9931,1.612299 -0.95909,0 -1.69497,-0.677992 -0.72761,-0.686261 -0.72761,-1.76113 0,-0.636652 0.25633,-1.124477 0.2563,-0.487824 0.7524,-0.818553 0.49609,-0.338996 1.20716,-0.529165 0.71107,-0.198437 1.68672,-0.272851 l 1.44692,-0.115755 v -0.413411 q 0,-2.215881 -2.06705,-2.215881 -0.48782,0 -1.24024,0.214974 -0.74414,0.206705 -1.28156,0.496092 l -0.33901,-0.92604 q 1.76114,-0.901235 3.27422,-0.901235 2.94349,0 2.94349,3.117117 v 3.704159 q 0,1.124476 0.21497,2.000908 z m -1.50482,-2.554878 v -1.562693 q -1.74458,0.157096 -2.39778,0.297656 -0.64493,0.132291 -1.12448,0.504361 -0.47128,0.37207 -0.47128,1.008721 0,0.578776 0.40513,0.93431 0.40516,0.355531 1.03354,0.355531 0.68625,0 1.36425,-0.40514 0.67799,-0.413412 1.19062,-1.132746 z m 5.77948,-9.318276 q 1.85209,1.397328 2.8112,3.241139 0.95911,1.835543 0.95911,3.910865 0,2.058785 -0.96739,3.910864 -0.95909,1.852081 -2.80292,3.249409 L 291.8433,34.56903 q 1.5131,-1.33945 2.17456,-2.844263 0.66971,-1.513084 0.66971,-3.621479 0,-2.17454 -0.68625,-3.638013 -0.68627,-1.463474 -2.15802,-2.786388 z m 25.14365,14.700883 h -0.65321 q -1.19062,0 -1.71979,-0.644921 -0.52088,-0.636654 -0.52088,-2.372977 v -0.793747 q 0,-1.546157 -0.40516,-2.149736 -0.40513,-0.611848 -1.30638,-0.611848 v -1.347719 q 0.90125,0 1.30638,-0.603579 0.40516,-0.611848 0.40516,-2.158004 v -0.802016 q 0,-1.728057 0.52088,-2.364709 0.52917,-0.644921 1.71979,-0.644921 h 0.65321 v 1.083136 h -0.24805 q -0.76896,0 -1.07487,0.330728 -0.29766,0.330729 -0.29766,1.579229 v 0.529166 q 0,1.71152 -0.39687,2.521805 -0.39688,0.810285 -1.34774,1.198891 0.95086,0.396874 1.34774,1.207159 0.39687,0.810285 0.39687,2.521806 v 0.529164 q 0,1.2485 0.29766,1.579229 0.30591,0.330729 1.07487,0.330729 h 0.24805 z"
         id="path113"
         style="font-size:16.9333px;font-family:'Andale Mono';-inkscape-font-specification:'Andale Mono, Normal';fill:#d5d5d5;stroke-width:2.11667"
         aria-label="function visualize(data) {" />
    </clipPath>
    <clipPath
       clipPathUnits="userSpaceOnUse"
       id="clipPath113">
      <path
         d="m 64.9507,95.852457 q -1.124476,0.51263 -2.472195,0.51263 -2.033979,0 -3.249406,-1.231964 -1.207159,-1.240231 -1.207159,-3.29075 0,-2.050515 1.215427,-3.282481 1.223695,-1.240232 3.208065,-1.240232 1.298109,0 2.472195,0.454752 l -0.338994,1.066602 q -1.174089,-0.405143 -2.116664,-0.405143 -1.422133,0 -2.257222,0.917771 -0.82682,0.91777 -0.82682,2.488731 0,1.43867 0.859893,2.422586 0.859893,0.975649 2.240685,0.975649 1.091406,0 2.248953,-0.421677 z m 6.854349,-8.532797 q 1.777667,0 2.827729,1.240232 1.050063,1.240234 1.050063,3.265945 0,2.04225 -1.050063,3.29075 -1.050062,1.2485 -2.827729,1.2485 -1.785935,0 -2.835997,-1.240232 -1.041794,-1.2485 -1.041794,-3.299018 0,-2.033979 1.050062,-3.265945 1.050065,-1.240232 2.827729,-1.240232 z m 0,7.920948 q 1.174086,0 1.852081,-0.992185 0.677992,-0.992185 0.677992,-2.40605 0,-1.488278 -0.669724,-2.44739 -0.669727,-0.959112 -1.860349,-0.959112 -1.198891,0 -1.860346,0.950844 -0.661459,0.942575 -0.661459,2.455658 0,1.43867 0.669727,2.422586 0.669724,0.975649 1.852078,0.975649 z m 13.501995,0.901237 h -1.289842 v -5.523167 q 0,-1.149281 -0.37207,-1.661911 -0.363799,-0.520896 -1.149278,-0.520896 -1.18236,0 -2.538347,1.471742 v 6.234232 h -1.289841 v -8.615479 h 1.289841 v 1.265036 q 1.389055,-1.471742 2.926945,-1.471742 2.422592,0 2.422592,2.926948 z m 9.2604,-7.383513 q -1.08314,-0.355534 -2.042252,-0.355534 -1.05006,0 -1.661909,0.355534 -0.611849,0.347263 -0.611849,0.934307 0,0.372068 0.28112,0.653187 0.28112,0.272852 1.124479,0.512631 l 1.231961,0.355534 q 0.85163,0.239776 1.38906,0.578773 0.537429,0.330729 0.802018,0.810286 0.272851,0.471287 0.272851,1.099672 0,1.231964 -1.033531,1.951297 -1.033528,0.711068 -2.629289,0.711068 -1.5875,0 -2.621021,-0.479558 l 0.248042,-1.116208 q 1.083138,0.512628 2.32337,0.512628 1.07487,0 1.744588,-0.396873 0.678,-0.405143 0.678,-1.066599 0,-0.446484 -0.339,-0.79375 -0.330729,-0.355533 -1.570958,-0.735869 -1.00045,-0.305925 -1.471742,-0.454753 -0.471289,-0.157096 -0.87643,-0.454753 -0.405148,-0.297653 -0.62012,-0.711065 -0.2067,-0.413411 -0.2067,-0.926039 0,-1.116211 0.97564,-1.769398 0.975651,-0.65319 2.587961,-0.65319 1.041789,0 2.315089,0.355534 z m 11.145546,6.994906 q -1.29811,0.595312 -2.55488,0.595312 -2.30683,0 -2.30683,-2.439122 v -5.266851 h -1.653638 v -1.116211 h 1.653638 v -2.35644 h 1.25677 v 2.35644 h 2.92694 v 1.116211 h -2.92694 v 4.927854 q 0,0.785479 0.34726,1.223695 0.34727,0.429948 0.94258,0.429948 1.05833,0 2.09186,-0.471289 z m 19.6122,0.388607 h -3.52226 v -10.55024 h -2.24895 v -1.116208 h 3.53879 v 10.550239 h 2.23242 z m 11.00499,0 h -1.28158 q -0.15709,-0.520899 -0.15709,-1.38906 -1.09968,1.612302 -2.9931,1.612302 -0.95911,0 -1.69498,-0.677995 -0.7276,-0.68626 -0.7276,-1.761128 0,-0.636653 0.25631,-1.124476 0.25632,-0.487826 0.75241,-0.818555 0.49609,-0.338997 1.20716,-0.529166 0.71106,-0.198435 1.68671,-0.272849 l 1.44694,-0.115756 v -0.413411 q 0,-2.21588 -2.06705,-2.21588 -0.48783,0 -1.24023,0.214974 -0.74414,0.206703 -1.28158,0.496091 l -0.33899,-0.926039 q 1.76113,-0.901237 3.27421,-0.901237 2.94348,0 2.94348,3.117117 v 3.704159 q 0,1.124479 0.21498,2.000909 z m -1.50482,-2.554878 v -1.562693 q -1.74459,0.157097 -2.39778,0.297657 -0.64492,0.132291 -1.12448,0.504359 -0.47129,0.37207 -0.47129,1.008724 0,0.578773 0.40515,0.934307 0.40514,0.355534 1.03352,0.355534 0.68627,0 1.36426,-0.405143 0.67799,-0.413412 1.19062,-1.132745 z m 11.84008,-6.060601 -3.26594,8.615479 q -0.71107,1.90169 -1.41386,2.654096 -0.69453,0.752406 -1.5875,0.752406 -0.79375,0 -1.57096,-0.289385 l 0.21497,-1.033529 q 0.62839,0.198438 1.12448,0.198438 0.69453,0 1.14101,-0.537433 0.44649,-0.537435 0.90124,-1.76113 l -3.23287,-8.598942 h 1.40559 l 2.43913,6.870885 2.43912,-6.870885 z m 10.02935,4.34908 h -5.91177 q 0,1.463474 0.84336,2.414318 0.85162,0.950844 2.08359,0.950844 1.17408,0 2.42258,-0.421677 l 0.22324,1.033526 q -1.14101,0.51263 -2.66236,0.51263 -1.91823,0 -3.09231,-1.231964 -1.17409,-1.231963 -1.17409,-3.323823 0,-2.050515 1.05006,-3.265942 1.05834,-1.223698 2.72851,-1.223698 1.48828,0 2.48874,1.132747 1.00045,1.132745 1.00045,3.017896 z m -1.4056,-1.050062 q 0,-1.008722 -0.62838,-1.694985 -0.62838,-0.694528 -1.4056,-0.694528 -1.00045,0 -1.66191,0.661456 -0.65319,0.661458 -0.7276,1.728057 z m 11.44321,-3.067508 -0.5209,1.240232 q -0.85163,-0.372071 -1.47174,-0.372071 -0.57051,0 -1.11621,0.33073 -0.5457,0.322461 -1.00872,0.93431 -0.45476,0.603578 -0.45476,0.677992 v 5.572776 h -1.28157 v -8.615479 h 1.28157 v 1.744593 q 1.03353,-1.951299 2.6789,-1.951299 0.97565,0 1.89343,0.438216 z m 20.76148,1.289841 h -7.82173 v -1.083135 h 7.82173 z m 0,3.315555 h -7.82173 v -1.083138 h 7.82173 z m 19.75275,3.778573 h -1.28984 v -5.523167 q 0,-1.149281 -0.37207,-1.661911 -0.3638,-0.520896 -1.14928,-0.520896 -1.18235,0 -2.53834,1.471742 v 6.234232 h -1.28984 v -8.615479 h 1.28984 v 1.265036 q 1.38906,-1.471742 2.92695,-1.471742 2.42258,0 2.42258,2.926948 z m 10.41796,-4.266399 h -5.91178 q 0,1.463474 0.84336,2.414318 0.85163,0.950844 2.08359,0.950844 1.17409,0 2.42259,-0.421677 l 0.22324,1.033526 q -1.14101,0.51263 -2.66237,0.51263 -1.91822,0 -3.09231,-1.231964 -1.17408,-1.231963 -1.17408,-3.323823 0,-2.050515 1.05006,-3.265942 1.05833,-1.223698 2.72851,-1.223698 1.48828,0 2.48873,1.132747 1.00046,1.132745 1.00046,3.017896 z m -1.4056,-1.050062 q 0,-1.008722 -0.62839,-1.694985 -0.62838,-0.694528 -1.40559,-0.694528 -1.00046,0 -1.66191,0.661456 -0.65319,0.661458 -0.7276,1.728057 z m 12.32791,-3.299018 -1.24023,8.615479 h -0.98392 l -2.02571,-4.878245 -2.03398,4.878245 h -0.98392 l -1.21543,-8.615479 h 1.28157 q 0.68627,6.035796 0.71107,6.333453 l 1.57923,-3.745503 h 1.32291 l 1.57096,3.720698 0.69453,-6.308648 z m 13.0059,-3.050969 h 2.96002 q 1.67846,0 2.68718,0.843357 1.00872,0.843356 1.00872,2.323367 0,1.488278 -1.00872,2.381245 -1.00047,0.8847 -2.6293,0.8847 h -1.66191 v 5.233779 h -1.35599 z m 1.35599,5.250315 h 1.47174 q 2.38952,0 2.38952,-2.000909 0,-0.926039 -0.6532,-1.496547 -0.64492,-0.570505 -1.67017,-0.570505 h -1.53789 z m 14.47764,6.416133 h -3.52226 v -10.55024 h -2.24896 v -1.116208 h 3.5388 v 10.550239 h 2.23242 z m 7.44966,-8.822185 q 1.77766,0 2.82771,1.240232 1.05008,1.240234 1.05008,3.265945 0,2.04225 -1.05008,3.29075 -1.05005,1.2485 -2.82771,1.2485 -1.78593,0 -2.83601,-1.240232 -1.0418,-1.2485 -1.0418,-3.299018 0,-2.033979 1.05008,-3.265945 1.05005,-1.240232 2.82773,-1.240232 z m 0,7.920948 q 1.17409,0 1.85206,-0.992185 0.67799,-0.992185 0.67799,-2.40605 0,-1.488278 -0.66971,-2.44739 -0.66974,-0.959112 -1.86034,-0.959112 -1.1989,0 -1.86036,0.950844 -0.66146,0.942575 -0.66146,2.455658 0,1.43867 0.66974,2.422586 0.66971,0.975649 1.85208,0.975649 z m 13.58466,0.51263 q -1.29809,0.595312 -2.55487,0.595312 -2.30682,0 -2.30682,-2.439122 v -5.266851 h -1.65364 v -1.116211 h 1.65364 v -2.35644 h 1.25675 v 2.35644 h 2.92695 v 1.116211 h -2.92695 v 4.927854 q 0,0.785479 0.34726,1.223695 0.34727,0.429948 0.94258,0.429948 1.05833,0 2.09188,-0.471289 z m 10.12857,0.388607 h -6.35 V 84.475397 h 1.35599 V 94.95949 h 4.99401 z m 10.32701,0 h -1.28157 q -0.15711,-0.520899 -0.15711,-1.38906 -1.09966,1.612302 -2.99309,1.612302 -0.95912,0 -1.69498,-0.677995 -0.7276,-0.68626 -0.7276,-1.761128 0,-0.636653 0.25633,-1.124476 0.2563,-0.487826 0.75239,-0.818555 0.4961,-0.338997 1.20716,-0.529166 0.71107,-0.198435 1.68672,-0.272849 l 1.44693,-0.115756 v -0.413411 q 0,-2.21588 -2.06706,-2.21588 -0.48781,0 -1.24023,0.214974 -0.74414,0.206703 -1.28157,0.496091 l -0.33901,-0.926039 q 1.76115,-0.901237 3.27422,-0.901237 2.94349,0 2.94349,3.117117 v 3.704159 q 0,1.124479 0.21498,2.000909 z m -1.50482,-2.554878 v -1.562693 q -1.74458,0.157097 -2.39779,0.297657 -0.64492,0.132291 -1.12448,0.504359 -0.47127,0.37207 -0.47127,1.008724 0,0.578773 0.40513,0.934307 0.40515,0.355534 1.03354,0.355534 0.68625,0 1.36424,-0.405143 0.678,-0.413412 1.19063,-1.132745 z m 11.84008,-6.060601 -3.26594,8.615479 q -0.71107,1.90169 -1.41385,2.654096 -0.69454,0.752406 -1.5875,0.752406 -0.79375,0 -1.57097,-0.289385 l 0.21498,-1.033529 q 0.62838,0.198438 1.12447,0.198438 0.69454,0 1.14102,-0.537433 0.44648,-0.537435 0.90122,-1.76113 l -3.23286,-8.598942 h 1.4056 l 2.43911,6.870885 2.43912,-6.870885 z m 10.02935,4.34908 h -5.91178 q 0,1.463474 0.84334,2.414318 0.85164,0.950844 2.08359,0.950844 1.17409,0 2.42261,-0.421677 l 0.22322,1.033526 q -1.14101,0.51263 -2.66237,0.51263 -1.91822,0 -3.09229,-1.231964 -1.17408,-1.231963 -1.17408,-3.323823 0,-2.050515 1.05005,-3.265942 1.05833,-1.223698 2.72851,-1.223698 1.48828,0 2.48873,1.132747 1.00047,1.132745 1.00047,3.017896 z m -1.40563,-1.050062 q 0,-1.008722 -0.62836,-1.694985 -0.62838,-0.694528 -1.4056,-0.694528 -1.00047,0 -1.66193,0.661456 -0.65317,0.661458 -0.7276,1.728057 z m 11.44326,-3.067508 -0.52092,1.240232 q -0.85164,-0.372071 -1.47174,-0.372071 -0.5705,0 -1.1162,0.33073 -0.5457,0.322461 -1.00872,0.93431 -0.45477,0.603578 -0.45477,0.677992 v 5.572776 h -1.28156 v -8.615479 h 1.28156 v 1.744593 q 1.03354,-1.951299 2.67891,-1.951299 0.97565,0 1.89344,0.438216 z"
         id="path114"
         style="font-size:16.9333px;font-family:'Andale Mono';-inkscape-font-specification:'Andale Mono, Normal';fill:#d5d5d5;stroke-width:2.11667"
         aria-label="const layer = new PlotLayer" />
    </clipPath>
    <clipPath
       clipPathUnits="userSpaceOnUse"
       id="clipPath114">
      <path
         d="m 64.616092,74.292303 q -1.124477,0.51263 -2.472193,0.51263 -2.033982,0 -3.249409,-1.231966 -1.207158,-1.240232 -1.207158,-3.290747 0,-2.050518 1.215427,-3.282482 1.223695,-1.240232 3.208067,-1.240232 1.298107,0 2.472193,0.454753 l -0.338995,1.066599 q -1.174086,-0.405143 -2.116664,-0.405143 -1.422133,0 -2.257221,0.917773 -0.82682,0.917771 -0.82682,2.488732 0,1.438669 0.859893,2.422586 0.859893,0.975648 2.240687,0.975648 1.091404,0 2.248953,-0.421677 z m 6.854351,-8.532797 q 1.777664,0 2.827727,1.240232 1.050062,1.240232 1.050062,3.265945 0,2.042248 -1.050062,3.290748 -1.050063,1.248502 -2.827727,1.248502 -1.785935,0 -2.836,-1.240231 -1.041794,-1.248503 -1.041794,-3.299019 0,-2.033981 1.050065,-3.265945 1.050063,-1.240232 2.827729,-1.240232 z m 0,7.920948 q 1.174086,0 1.852078,-0.992185 0.677995,-0.992185 0.677995,-2.406049 0,-1.488279 -0.669727,-2.447391 -0.669726,-0.959114 -1.860346,-0.959114 -1.198893,0 -1.860349,0.950846 -0.661458,0.942576 -0.661458,2.455659 0,1.438669 0.669726,2.422586 0.669724,0.975648 1.852081,0.975648 z m 13.501992,0.901237 h -1.289841 v -5.523166 q 0,-1.149282 -0.372068,-1.661912 -0.363802,-0.520898 -1.149281,-0.520898 -1.182359,0 -2.538346,1.471742 v 6.234234 h -1.289841 v -8.615479 h 1.289841 v 1.265037 q 1.389057,-1.471743 2.926945,-1.471743 2.422591,0 2.422591,2.926948 z m 9.260401,-7.383515 q -1.083141,-0.355531 -2.04225,-0.355531 -1.05006,0 -1.661912,0.355531 -0.611849,0.347265 -0.611849,0.93431 0,0.372067 0.28112,0.653187 0.28112,0.272852 1.124479,0.51263 l 1.231961,0.355532 q 0.851631,0.239778 1.38906,0.578776 0.53743,0.330726 0.802021,0.810283 0.272849,0.471289 0.272849,1.099672 0,1.231966 -1.033529,1.9513 -1.033531,0.711067 -2.629291,0.711067 -1.5875,0 -2.621021,-0.479557 l 0.248042,-1.116211 q 1.08314,0.51263 2.323369,0.51263 1.07487,0 1.744589,-0.396875 0.678,-0.40514 0.678,-1.066599 0,-0.446484 -0.339,-0.793747 -0.330729,-0.355534 -1.570958,-0.73587 -1.000451,-0.305924 -1.47174,-0.454752 -0.471292,-0.157097 -0.876432,-0.454753 -0.405149,-0.297656 -0.62012,-0.711065 -0.206698,-0.413411 -0.206698,-0.926042 0,-1.116208 0.975638,-1.769395 0.975651,-0.653191 2.587961,-0.653191 1.041789,0 2.315091,0.355534 z m 11.145544,6.994908 q -1.2981,0.59531 -2.55488,0.59531 -2.30683,0 -2.30683,-2.439122 v -5.266851 h -1.653634 v -1.116209 h 1.653634 v -2.35644 h 1.25677 v 2.35644 h 2.92694 v 1.116209 h -2.92694 v 4.927856 q 0,0.785479 0.34727,1.223695 0.34727,0.429946 0.94258,0.429946 1.05832,0 2.09186,-0.471287 z m 20.20751,0.09922 q -1.12447,0.51263 -2.47219,0.51263 -2.03397,0 -3.2494,-1.231963 -1.20717,-1.240232 -1.20717,-3.290747 0,-2.050519 1.21543,-3.282482 1.22369,-1.240232 3.20806,-1.240232 1.29812,0 2.4722,0.45475 l -0.339,1.066602 q -1.17408,-0.405144 -2.11665,-0.405144 -1.42213,0 -2.25723,0.917771 -0.82682,0.917774 -0.82682,2.488735 0,1.438666 0.85989,2.422585 0.8599,0.975649 2.24069,0.975649 1.09141,0 2.24896,-0.42168 z m 6.85435,-8.532794 q 1.77766,0 2.82772,1.240232 1.05008,1.240232 1.05008,3.265945 0,2.042247 -1.05008,3.290747 -1.05006,1.2485 -2.82772,1.2485 -1.78593,0 -2.83599,-1.240231 -1.04181,-1.2485 -1.04181,-3.299016 0,-2.033982 1.05007,-3.265945 1.05006,-1.240232 2.82773,-1.240232 z m 0,7.920948 q 1.17408,0 1.85208,-0.992185 0.67799,-0.992188 0.67799,-2.406049 0,-1.488279 -0.66973,-2.447394 -0.66971,-0.959112 -1.86034,-0.959112 -1.1989,0 -1.86035,0.950844 -0.66145,0.942578 -0.66145,2.455662 0,1.438666 0.66971,2.422585 0.66973,0.975649 1.85209,0.975649 z m 13.502,0.901234 h -1.28985 v -5.523164 q 0,-1.149284 -0.37207,-1.661911 -0.3638,-0.520899 -1.14927,-0.520899 -1.18236,0 -2.53835,1.471743 v 6.234231 h -1.28984 v -8.615476 h 1.28984 v 1.265036 q 1.38906,-1.471742 2.92694,-1.471742 2.4226,0 2.4226,2.926948 z m 10.24432,-0.388604 q -1.29811,0.59531 -2.55488,0.59531 -2.30684,0 -2.30684,-2.439122 v -5.266852 h -1.65364 v -1.116208 h 1.65364 v -2.356443 h 1.25678 v 2.356443 h 2.92694 v 1.116208 h -2.92694 v 4.927854 q 0,0.785482 0.34726,1.223695 0.34726,0.429948 0.94257,0.429948 1.05833,0 2.09187,-0.471289 z m 6.73859,-8.433578 q 1.77766,0 2.82771,1.240232 1.05008,1.240232 1.05008,3.265945 0,2.042247 -1.05008,3.290747 -1.05005,1.2485 -2.82771,1.2485 -1.78594,0 -2.83601,-1.240231 -1.0418,-1.2485 -1.0418,-3.299016 0,-2.033982 1.05007,-3.265945 1.05006,-1.240232 2.82774,-1.240232 z m 0,7.920948 q 1.17407,0 1.85207,-0.992185 0.67799,-0.992188 0.67799,-2.406049 0,-1.488279 -0.66973,-2.447394 -0.66971,-0.959112 -1.86033,-0.959112 -1.19889,0 -1.86036,0.950844 -0.66146,0.942578 -0.66146,2.455662 0,1.438666 0.66974,2.422585 0.66971,0.975649 1.85208,0.975649 z m 13.48544,0.901234 h -1.28983 v -1.273304 q -1.38906,1.48001 -2.92694,1.48001 -2.4226,0 -2.4226,-2.935214 v -5.886968 h 1.28985 v 5.514898 q 0,1.099672 0.34727,1.645372 0.34725,0.537435 1.17407,0.537435 1.18237,0 2.53835,-1.471742 v -6.225963 h 1.28983 z m 10.31047,-8.383966 -0.5209,1.240232 q -0.85162,-0.37207 -1.47174,-0.37207 -0.57051,0 -1.1162,0.330729 -0.5457,0.322458 -1.00873,0.934307 -0.45475,0.603578 -0.45475,0.677992 v 5.572776 h -1.28158 v -8.615476 h 1.28158 v 1.744594 q 1.03353,-1.9513 2.67891,-1.9513 0.97564,0 1.89341,0.438216 z m 20.76148,1.289841 h -7.82174 v -1.083138 h 7.82174 z m 0,3.315552 h -7.82174 v -1.083135 h 7.82174 z m 19.75277,3.778573 h -1.28985 v -5.523164 q 0,-1.149284 -0.37207,-1.661911 -0.36381,-0.520899 -1.14928,-0.520899 -1.18236,0 -2.53835,1.471743 v 6.234231 h -1.28983 v -8.615476 h 1.28983 v 1.265036 q 1.38906,-1.471742 2.92695,-1.471742 2.4226,0 2.4226,2.926948 z m 10.41795,-4.266396 h -5.91177 q 0,1.463474 0.84334,2.414318 0.85163,0.950844 2.0836,0.950844 1.17408,0 2.42258,-0.42168 l 0.22325,1.033526 q -1.14101,0.51263 -2.66237,0.51263 -1.91822,0 -3.09232,-1.231963 -1.17407,-1.231964 -1.17407,-3.32382 0,-2.050519 1.05006,-3.265946 1.05832,-1.223695 2.72851,-1.223695 1.48827,0 2.48873,1.132745 1.00046,1.132745 1.00046,3.017898 z m -1.40561,-1.050065 q 0,-1.008721 -0.62838,-1.694984 -0.62839,-0.694529 -1.40559,-0.694529 -1.00045,0 -1.66192,0.661456 -0.65319,0.661458 -0.72759,1.728057 z m 12.32791,-3.299015 -1.24023,8.615476 h -0.98391 l -2.0257,-4.878244 -2.034,4.878244 h -0.98391 l -1.21543,-8.615476 h 1.28157 q 0.68626,6.035794 0.71106,6.33345 l 1.57924,-3.7455 h 1.32293 l 1.57093,3.720696 0.69453,-6.308646 z m 19.74448,7.887875 q -1.37253,0.950843 -3.18326,0.950843 -2.26549,0 -3.44783,-1.554424 -1.17409,-1.554425 -1.17409,-4.497906 0,-2.844266 1.14101,-4.4483 1.14102,-1.612302 3.48091,-1.612302 0.84336,0 1.67019,0.214974 0.82682,0.214974 1.33117,0.570508 l -0.44649,1.066599 q -1.1658,-0.661458 -2.55487,-0.661458 -1.61229,0 -2.39778,1.174088 -0.78547,1.165818 -0.78547,3.695891 0,4.861708 3.18325,4.861708 1.34771,0 2.76159,-0.82682 z m 6.38307,-8.094581 q 1.77766,0 2.82774,1.240232 1.05005,1.240232 1.05005,3.265945 0,2.042247 -1.05005,3.290747 -1.05008,1.2485 -2.82774,1.2485 -1.78594,0 -2.83599,-1.240231 -1.04179,-1.2485 -1.04179,-3.299016 0,-2.033982 1.05005,-3.265945 1.05008,-1.240232 2.82773,-1.240232 z m 0,7.920948 q 1.17409,0 1.85209,-0.992185 0.67799,-0.992188 0.67799,-2.406049 0,-1.488279 -0.66974,-2.447394 -0.66971,-0.959112 -1.86034,-0.959112 -1.1989,0 -1.86034,0.950844 -0.66145,0.942578 -0.66145,2.455662 0,1.438666 0.66971,2.422585 0.66971,0.975649 1.85208,0.975649 z m 13.50201,0.901234 h -1.28985 v -5.523164 q 0,-1.149284 -0.37208,-1.661911 -0.3638,-0.520899 -1.14927,-0.520899 -1.18237,0 -2.53833,1.471743 v 6.234231 h -1.28987 v -8.615476 h 1.28987 v 1.265036 q 1.38903,-1.471742 2.92692,-1.471742 2.42261,0 2.42261,2.926948 z m 10.24429,-0.388604 q -1.2981,0.59531 -2.55487,0.59531 -2.30682,0 -2.30682,-2.439122 v -5.266852 h -1.65365 v -1.116208 h 1.65365 v -2.356443 h 1.25677 v 2.356443 h 2.92693 v 1.116208 h -2.92693 v 4.927854 q 0,0.785482 0.34727,1.223695 0.34726,0.429948 0.94258,0.429948 1.0583,0 2.09184,-0.471289 z"
         id="path115"
         style="font-size:16.9333px;font-family:'Andale Mono';-inkscape-font-specification:'Andale Mono, Normal';fill:#ffffff;stroke-width:2.11667"
         aria-label="const contour = new Cont" />
    </clipPath>
    <clipPath
       clipPathUnits="userSpaceOnUse"
       id="clipPath133">
      <path
         d="M 86.537581,119.03791 H 85.24774 v -5.65546 q 0,-2.05052 -0.760674,-2.05052 -0.388607,0 -0.859896,0.71107 -0.463018,0.7028 -0.463018,0.77721 v 6.2177 h -1.281573 v -5.65546 q 0,-2.05052 -0.768945,-2.05052 -0.380339,0 -0.851625,0.71107 -0.463021,0.7028 -0.463021,0.77721 v 6.2177 h -1.289841 v -8.61548 h 1.240232 v 1.29811 q 0.363802,-0.68626 0.859895,-1.0914 0.50436,-0.41341 1.000453,-0.41341 0.520896,0 0.934308,0.41341 0.413411,0.40514 0.570507,1.0914 0.3638,-0.68626 0.868162,-1.0914 0.504362,-0.41341 0.992185,-0.41341 1.562692,0 1.562692,2.79465 z m 9.698615,0 h -1.281573 q -0.157096,-0.5209 -0.157096,-1.38906 -1.099672,1.6123 -2.993094,1.6123 -0.959112,0 -1.694984,-0.67799 -0.727602,-0.68627 -0.727602,-1.76113 0,-0.63666 0.256315,-1.12448 0.256315,-0.48782 0.752406,-0.81855 0.496094,-0.339 1.207159,-0.52917 0.711068,-0.19844 1.686716,-0.27285 l 1.446938,-0.11575 v -0.41342 q 0,-2.21588 -2.067055,-2.21588 -0.487823,0 -1.240232,0.21498 -0.744138,0.2067 -1.281573,0.49609 l -0.338997,-0.92604 q 1.76113,-0.90123 3.274214,-0.90123 2.943484,0 2.943484,3.11711 v 3.70416 q 0,1.12448 0.214974,2.00091 z m -1.504815,-2.55488 v -1.56269 q -1.744594,0.15709 -2.397784,0.29765 -0.644919,0.1323 -1.124477,0.50436 -0.471286,0.37207 -0.471286,1.00873 0,0.57877 0.405143,0.9343 0.405141,0.35554 1.033526,0.35554 0.686261,0 1.364255,-0.40514 0.677992,-0.41341 1.190623,-1.13275 z m 6.101939,-4.94439 q 0.42995,-0.59531 1.15755,-0.95911 0.73587,-0.3638 1.54616,-0.3638 1.48828,0 2.33164,1.23196 0.85162,1.22369 0.85162,3.19153 0,1.98437 -0.89297,3.30728 -0.88469,1.31465 -2.38951,1.31465 -0.80202,0 -1.50481,-0.39687 -0.69453,-0.40515 -1.09968,-1.0666 v 4.64673 h -1.28984 v -12.02198 h 1.28984 z m 0,1.28157 v 3.58014 q 0.36381,0.7276 0.98392,1.21543 0.62012,0.48782 1.28157,0.48782 1.0418,0 1.65365,-0.97565 0.62011,-0.97565 0.62011,-2.42259 0,-1.48827 -0.58704,-2.43085 -0.58704,-0.94258 -1.63711,-0.94258 -1.36425,0 -2.3151,1.48828 z m 12.12121,4.32428 q 0.43821,0 0.73587,0.29765 0.29765,0.29766 0.29765,0.73587 0,0.44649 -0.30592,0.76895 -0.29766,0.31419 -0.7276,0.31419 -0.42168,0 -0.71934,-0.31419 -0.29766,-0.32246 -0.29766,-0.76895 0,-0.44648 0.28939,-0.73587 0.29766,-0.29765 0.72761,-0.29765 z m 10.21124,-6.92876 q 1.77766,0 2.82773,1.24023 1.05006,1.24023 1.05006,3.26594 0,2.04225 -1.05006,3.29075 -1.05007,1.2485 -2.82773,1.2485 -1.78594,0 -2.836,-1.24023 -1.04179,-1.2485 -1.04179,-3.29902 0,-2.03398 1.05006,-3.26594 1.05006,-1.24023 2.82773,-1.24023 z m 0,7.92094 q 1.17408,0 1.85208,-0.99218 0.67799,-0.99219 0.67799,-2.40605 0,-1.48828 -0.66973,-2.44739 -0.66972,-0.95912 -1.86034,-0.95912 -1.19889,0 -1.86035,0.95085 -0.66146,0.94257 -0.66146,2.45566 0,1.43867 0.66973,2.42258 0.66972,0.97565 1.85208,0.97565 z m 13.50199,0.90124 h -1.28984 v -5.52317 q 0,-1.14928 -0.37207,-1.66191 -0.3638,-0.5209 -1.14928,-0.5209 -1.18236,0 -2.53835,1.47175 v 6.23423 h -1.28984 v -8.61548 h 1.28984 v 1.26504 q 1.38906,-1.47174 2.92695,-1.47174 2.42259,0 2.42259,2.92694 z m 9.66554,1.72805 -0.50436,0.71107 q -1.84381,-1.39733 -2.81119,-3.24941 -0.96738,-1.85208 -0.96738,-3.91086 0,-2.07532 0.95911,-3.91087 0.95911,-1.84381 2.81946,-3.24114 l 0.50436,0.71107 q -1.51308,1.35599 -2.18281,2.84427 -0.66145,1.48001 -0.66145,3.58013 0,2.17454 0.68626,3.66282 0.69453,1.48001 2.158,2.80292 z m 7.96229,-11.41013 -0.30593,2.3151 h -0.66146 l -0.29765,-2.3151 v -1.98437 h 1.26504 z m 12.22868,9.68208 h -3.52225 v -10.55024 h -2.24896 v -1.11621 h 3.5388 v 10.55024 h 2.23241 z m 7.44967,-8.82218 q 1.77766,0 2.82773,1.24023 1.05006,1.24023 1.05006,3.26594 0,2.04225 -1.05006,3.29075 -1.05007,1.2485 -2.82773,1.2485 -1.78594,0 -2.836,-1.24023 -1.04179,-1.2485 -1.04179,-3.29902 0,-2.03398 1.05006,-3.26594 1.05006,-1.24023 2.82773,-1.24023 z m 0,7.92094 q 1.17408,0 1.85208,-0.99218 0.67799,-0.99219 0.67799,-2.40605 0,-1.48828 -0.66972,-2.44739 -0.66973,-0.95912 -1.86035,-0.95912 -1.19889,0 -1.86035,0.95085 -0.66146,0.94257 -0.66146,2.45566 0,1.43867 0.66973,2.42258 0.66972,0.97565 1.85208,0.97565 z m 13.71696,0.90124 h -1.28158 q -0.15709,-0.5209 -0.15709,-1.38906 -1.09967,1.6123 -2.99309,1.6123 -0.95912,0 -1.69499,-0.67799 -0.7276,-0.68627 -0.7276,-1.76113 0,-0.63666 0.25631,-1.12448 0.25632,-0.48782 0.75241,-0.81855 0.49609,-0.339 1.20716,-0.52917 0.71107,-0.19844 1.68672,-0.27285 l 1.44693,-0.11575 v -0.41342 q 0,-2.21588 -2.06705,-2.21588 -0.48783,0 -1.24023,0.21498 -0.74414,0.2067 -1.28158,0.49609 l -0.33899,-0.92604 q 1.76113,-0.90123 3.27421,-0.90123 2.94348,0 2.94348,3.11711 v 3.70416 q 0,1.12448 0.21498,2.00091 z m -1.50482,-2.55488 v -1.56269 q -1.74459,0.15709 -2.39778,0.29765 -0.64492,0.1323 -1.12448,0.50436 -0.47128,0.37207 -0.47128,1.00873 0,0.57877 0.40514,0.9343 0.40514,0.35554 1.03352,0.35554 0.68627,0 1.36426,-0.40514 0.67799,-0.41341 1.19062,-1.13275 z m 11.41841,2.55488 h -1.28984 v -1.24023 q -0.39688,0.63665 -1.14102,1.05006 -0.73587,0.41341 -1.55442,0.41341 -1.48001,0 -2.33991,-1.31465 -0.85989,-1.32291 -0.85989,-3.34862 0,-1.89342 0.89297,-3.13365 0.90123,-1.2485 2.38124,-1.2485 1.62884,0 2.62103,1.32291 v -4.16718 h 1.28984 z m -1.28984,-2.63756 v -3.58014 q -0.92604,-1.48828 -2.23242,-1.48828 -1.0666,0 -1.68672,0.95085 -0.62011,0.94257 -0.62011,2.38951 0,1.48828 0.57877,2.46393 0.58705,0.96738 1.60404,0.96738 0.48782,0 0.98391,-0.26458 0.4961,-0.26459 0.93431,-0.79375 0.43822,-0.52917 0.43822,-0.64492 z m 8.78911,-7.04452 -0.30592,2.3151 h -0.66146 l -0.29766,-2.3151 v -1.98437 h 1.26504 z m 9.53325,9.90532 q -0.42995,-0.0496 -0.71106,-0.35553 -0.28112,-0.30593 -0.28112,-0.69453 0,-0.42168 0.27285,-0.71107 0.27285,-0.28939 0.68626,-0.28939 0.46302,0 0.80202,0.38034 0.33899,0.37207 0.33899,0.90124 0,1.62057 -1.80247,2.53007 l -0.31419,-0.59531 q 1.00872,-0.49609 1.00872,-1.16582 z m 23.15099,1.50481 -0.50436,0.71107 q -1.84381,-1.39733 -2.8112,-3.24941 -0.96738,-1.85208 -0.96738,-3.91086 0,-2.07532 0.95912,-3.91087 0.95911,-1.84381 2.81946,-3.24114 l 0.50436,0.71107 q -1.51309,1.35599 -2.18281,2.84427 -0.66146,1.48001 -0.66146,3.58013 0,2.17454 0.68626,3.66282 0.69453,1.48001 2.15801,2.80292 z m 4.98573,-13.60121 q 1.85208,1.39733 2.8112,3.24114 0.95911,1.83555 0.95911,3.91087 0,2.05878 -0.96738,3.91086 -0.95912,1.85208 -2.80293,3.24941 l -0.51263,-0.71107 q 1.51309,-1.33945 2.17454,-2.84426 0.66973,-1.51308 0.66973,-3.62148 0,-2.17454 -0.68626,-3.63801 -0.68626,-1.46348 -2.15801,-2.78639 z m 26.56578,4.77903 h -7.82173 v -1.08313 h 7.82173 z m 0,3.31556 h -7.82173 v -1.08314 h 7.82173 z m 9.55804,-1.71153 -6.18463,3.71243 v -1.21542 l 4.96093,-2.95176 -4.96093,-3.02616 v -1.19063 l 6.18463,3.67936 z m 19.50472,8.31783 h -0.65318 q -1.19063,0 -1.71979,-0.64492 -0.52091,-0.63666 -0.52091,-2.37298 v -0.79375 q 0,-1.54615 -0.40513,-2.14973 -0.40516,-0.61185 -1.30638,-0.61185 v -1.34772 q 0.90122,0 1.30638,-0.60358 0.40513,-0.61185 0.40513,-2.158 v -0.80202 q 0,-1.72806 0.52091,-2.36471 0.52916,-0.64492 1.71979,-0.64492 h 0.65318 v 1.08314 h -0.24805 q -0.76893,0 -1.07487,0.33072 -0.29766,0.33073 -0.29766,1.57923 v 0.52917 q 0,1.71152 -0.39687,2.5218 -0.39688,0.81029 -1.34771,1.19889 0.95083,0.39688 1.34771,1.20716 0.39687,0.81029 0.39687,2.52181 v 0.52916 q 0,1.2485 0.29766,1.57923 0.30594,0.33073 1.07487,0.33073 h 0.24805 z"
         id="path133"
         style="font-size:16.9333px;font-family:'Andale Mono';-inkscape-font-specification:'Andale Mono, Normal';fill:#ffffff;stroke-width:2.11667" />
    </clipPath>
    <clipPath
       clipPathUnits="userSpaceOnUse"
       id="clipPath134">
      <path
         d="m 127.18412,140.20453 h -1.28984 v -5.65545 q 0,-2.05052 -0.76068,-2.05052 -0.3886,0 -0.85989,0.71107 -0.46302,0.70279 -0.46302,0.77721 v 6.21769 h -1.28158 v -5.65545 q 0,-2.05052 -0.76894,-2.05052 -0.38034,0 -0.85163,0.71107 -0.46302,0.70279 -0.46302,0.77721 v 6.21769 h -1.28984 v -8.61547 h 1.24024 v 1.2981 q 0.3638,-0.68626 0.85989,-1.0914 0.50436,-0.41341 1.00045,-0.41341 0.5209,0 0.93431,0.41341 0.41341,0.40514 0.57051,1.0914 0.3638,-0.68626 0.86816,-1.0914 0.50436,-0.41341 0.99219,-0.41341 1.56269,0 1.56269,2.79466 z m 9.69861,0 h -1.28157 q -0.1571,-0.52089 -0.1571,-1.38906 -1.09967,1.61231 -2.99309,1.61231 -0.95911,0 -1.69498,-0.678 -0.72761,-0.68626 -0.72761,-1.76113 0,-0.63665 0.25632,-1.12447 0.25631,-0.48783 0.7524,-0.81856 0.4961,-0.33899 1.20716,-0.52916 0.71107,-0.19844 1.68672,-0.27285 l 1.44694,-0.11576 v -0.41341 q 0,-2.21588 -2.06706,-2.21588 -0.48782,0 -1.24023,0.21497 -0.74414,0.20671 -1.28157,0.4961 l -0.339,-0.92604 q 1.76113,-0.90124 3.27421,-0.90124 2.94349,0 2.94349,3.11712 v 3.70416 q 0,1.12447 0.21497,2.0009 z m -1.50481,-2.55487 v -1.5627 q -1.7446,0.1571 -2.39779,0.29766 -0.64492,0.13229 -1.12447,0.50436 -0.47129,0.37207 -0.47129,1.00872 0,0.57878 0.40514,0.93431 0.40514,0.35553 1.03353,0.35553 0.68626,0 1.36425,-0.40514 0.678,-0.41341 1.19063,-1.13274 z m 6.10194,-4.9444 q 0.42995,-0.59531 1.15755,-0.95911 0.73587,-0.3638 1.54616,-0.3638 1.48827,0 2.33163,1.23196 0.85163,1.2237 0.85163,3.19153 0,1.98438 -0.89297,3.30729 -0.8847,1.31465 -2.38951,1.31465 -0.80202,0 -1.50482,-0.39688 -0.69453,-0.40514 -1.09967,-1.0666 v 4.64674 h -1.28984 v -12.02198 h 1.28984 z m 0,1.28158 v 3.58013 q 0.3638,0.72761 0.98392,1.21543 0.62011,0.48783 1.28157,0.48783 1.0418,0 1.65364,-0.97565 0.62012,-0.97565 0.62012,-2.42259 0,-1.48828 -0.58704,-2.43085 -0.58705,-0.94258 -1.63711,-0.94258 -1.36426,0 -2.3151,1.48828 z m 12.1212,4.32427 q 0.43821,0 0.73587,0.29766 0.29765,0.29765 0.29765,0.73587 0,0.44648 -0.30592,0.76894 -0.29766,0.3142 -0.7276,0.3142 -0.42168,0 -0.71934,-0.3142 -0.29765,-0.32246 -0.29765,-0.76894 0,-0.44648 0.28938,-0.73587 0.29766,-0.29766 0.72761,-0.29766 z m 13.76657,1.89342 h -1.28157 q -0.1571,-0.52089 -0.1571,-1.38906 -1.09967,1.61231 -2.99309,1.61231 -0.95911,0 -1.69498,-0.678 -0.72761,-0.68626 -0.72761,-1.76113 0,-0.63665 0.25632,-1.12447 0.25631,-0.48783 0.75241,-0.81856 0.49609,-0.33899 1.20715,-0.52916 0.71107,-0.19844 1.68672,-0.27285 l 1.44694,-0.11576 v -0.41341 q 0,-2.21588 -2.06706,-2.21588 -0.48782,0 -1.24023,0.21497 -0.74414,0.20671 -1.28157,0.4961 l -0.339,-0.92604 q 1.76113,-0.90124 3.27422,-0.90124 2.94348,0 2.94348,3.11712 v 3.70416 q 0,1.12447 0.21497,2.0009 z m -1.50481,-2.55487 v -1.5627 q -1.7446,0.1571 -2.39778,0.29766 -0.64492,0.13229 -1.12448,0.50436 -0.47129,0.37207 -0.47129,1.00872 0,0.57878 0.40514,0.93431 0.40515,0.35553 1.03353,0.35553 0.68626,0 1.36425,-0.40514 0.678,-0.41341 1.19063,-1.13274 z m 11.4184,2.55487 h -1.28984 v -1.24023 q -0.39687,0.63665 -1.14101,1.05006 -0.73587,0.41342 -1.55443,0.41342 -1.48001,0 -2.3399,-1.31465 -0.85989,-1.32291 -0.85989,-3.34863 0,-1.89342 0.89296,-3.13365 0.90124,-1.2485 2.38125,-1.2485 1.62884,0 2.62102,1.32291 v -4.16718 h 1.28984 z m -1.28984,-2.63756 v -3.58013 q -0.92604,-1.48828 -2.23242,-1.48828 -1.0666,0 -1.68671,0.95084 -0.62012,0.94258 -0.62012,2.38952 0,1.48828 0.57878,2.46392 0.58704,0.96739 1.60403,0.96739 0.48783,0 0.98392,-0.26459 0.49609,-0.26458 0.93431,-0.79375 0.43821,-0.52916 0.43821,-0.64492 z m 11.45147,2.63756 h -1.28984 v -1.24023 q -0.39687,0.63665 -1.14101,1.05006 -0.73587,0.41342 -1.55443,0.41342 -1.48001,0 -2.3399,-1.31465 -0.8599,-1.32291 -0.8599,-3.34863 0,-1.89342 0.89297,-3.13365 0.90124,-1.2485 2.38125,-1.2485 1.62883,0 2.62102,1.32291 v -4.16718 h 1.28984 z m -1.28984,-2.63756 v -3.58013 q -0.92604,-1.48828 -2.23242,-1.48828 -1.0666,0 -1.68671,0.95084 -0.62012,0.94258 -0.62012,2.38952 0,1.48828 0.57878,2.46392 0.58704,0.96739 1.60403,0.96739 0.48782,0 0.98392,-0.26459 0.49609,-0.26458 0.9343,-0.79375 0.43822,-0.52916 0.43822,-0.64492 z m 10.98846,4.36562 -0.50436,0.71107 q -1.84381,-1.39733 -2.8112,-3.24941 -0.96738,-1.85208 -0.96738,-3.91087 0,-2.07532 0.95912,-3.91086 0.95911,-1.84381 2.81946,-3.24114 l 0.50436,0.71107 q -1.51309,1.35598 -2.18281,2.84426 -0.66146,1.48001 -0.66146,3.58014 0,2.17454 0.68626,3.66282 0.69453,1.48001 2.15801,2.80292 z m 10.02934,-1.72806 h -3.52226 v -10.55024 h -2.24895 v -1.11621 h 3.53879 v 10.55024 h 2.23242 z m 11.005,0 h -1.28158 q -0.15709,-0.52089 -0.15709,-1.38906 -1.09967,1.61231 -2.9931,1.61231 -0.95911,0 -1.69498,-0.678 -0.7276,-0.68626 -0.7276,-1.76113 0,-0.63665 0.25631,-1.12447 0.25632,-0.48783 0.75241,-0.81856 0.49609,-0.33899 1.20716,-0.52916 0.71107,-0.19844 1.68671,-0.27285 l 1.44694,-0.11576 v -0.41341 q 0,-2.21588 -2.06705,-2.21588 -0.48783,0 -1.24023,0.21497 -0.74414,0.20671 -1.28158,0.4961 l -0.33899,-0.92604 q 1.76113,-0.90124 3.27421,-0.90124 2.94348,0 2.94348,3.11712 v 3.70416 q 0,1.12447 0.21498,2.0009 z m -1.50482,-2.55487 v -1.5627 q -1.74459,0.1571 -2.39778,0.29766 -0.64492,0.13229 -1.12448,0.50436 -0.47129,0.37207 -0.47129,1.00872 0,0.57878 0.40515,0.93431 0.40514,0.35553 1.03352,0.35553 0.68627,0 1.36426,-0.40514 0.67799,-0.41341 1.19062,-1.13274 z m 11.84007,-6.0606 -3.26594,8.61547 q -0.71107,1.90169 -1.41387,2.6541 -0.69453,0.75241 -1.5875,0.75241 -0.79374,0 -1.57096,-0.28939 l 0.21498,-1.03353 q 0.62838,0.19844 1.12447,0.19844 0.69453,0 1.14102,-0.53743 0.44648,-0.53744 0.90123,-1.76113 l -3.23287,-8.59894 h 1.4056 l 2.43912,6.87088 2.43912,-6.87088 z m 10.02935,4.34908 h -5.91178 q 0,1.46347 0.84336,2.41431 0.85163,0.95085 2.08359,0.95085 1.17409,0 2.42259,-0.42168 l 0.22324,1.03353 q -1.14102,0.51263 -2.66237,0.51263 -1.91822,0 -3.09231,-1.23197 -1.17408,-1.23196 -1.17408,-3.32382 0,-2.05052 1.05006,-3.26594 1.05833,-1.2237 2.72851,-1.2237 1.48828,0 2.48873,1.13275 1.00046,1.13274 1.00046,3.01789 z m -1.4056,-1.05007 q 0,-1.00872 -0.62839,-1.69498 -0.62838,-0.69453 -1.40559,-0.69453 -1.00046,0 -1.66191,0.66146 -0.65319,0.66145 -0.72761,1.72805 z m 11.44321,-3.0675 -0.5209,1.24023 q -0.85163,-0.37207 -1.47174,-0.37207 -0.57051,0 -1.11621,0.33073 -0.5457,0.32246 -1.00872,0.9343 -0.45475,0.60358 -0.45475,0.678 v 5.57277 h -1.28158 v -8.61547 h 1.28158 v 1.74459 q 1.03352,-1.9513 2.6789,-1.9513 0.97565,0 1.89342,0.43822 z m 4.35735,-3.48919 q 1.85208,1.39733 2.81119,3.24114 0.95911,1.83554 0.95911,3.91086 0,2.05879 -0.96738,3.91087 -0.95911,1.85208 -2.80292,3.24941 l -0.51263,-0.71107 q 1.51308,-1.33945 2.17454,-2.84427 0.66973,-1.51308 0.66973,-3.62147 0,-2.17454 -0.68627,-3.63802 -0.68626,-1.46347 -2.158,-2.78638 z m 12.49328,3.13365 q 0.42166,0 0.71106,0.28939 0.28938,0.28112 0.28938,0.69453 0,0.42168 -0.28938,0.7028 -0.2894,0.28112 -0.71106,0.28112 -0.41342,0 -0.69454,-0.28112 -0.28112,-0.28939 -0.28112,-0.7028 0,-0.41341 0.28112,-0.69453 0.28112,-0.28939 0.69454,-0.28939 z m 0.0164,8.96275 q -0.42994,-0.0496 -0.71106,-0.35554 -0.28112,-0.30592 -0.28112,-0.69453 0,-0.42168 0.27285,-0.71106 0.27285,-0.28939 0.68626,-0.28939 0.46302,0 0.80203,0.38034 0.33898,0.37207 0.33898,0.90123 0,1.62057 -1.80246,2.53007 l -0.31419,-0.59531 q 1.00871,-0.49609 1.00871,-1.16581 z"
         id="path134"
         style="font-size:16.9333px;font-family:'Andale Mono';-inkscape-font-specification:'Andale Mono, Normal';fill:#ffffff;stroke-width:2.11667" />
    </clipPath>
    <clipPath
       clipPathUnits="userSpaceOnUse"
       id="clipPath135">
      <path
         d="m 84.602821,157.62566 q -0.892969,0 -1.30638,0.61185 -0.405141,0.60358 -0.405141,2.14973 v 0.79375 q 0,1.73632 -0.520898,2.37298 -0.520896,0.64492 -1.711521,0.64492 h -0.661456 v -1.08314 h 0.256315 q 0.768943,0 1.066599,-0.33073 0.305925,-0.33073 0.305925,-1.57923 v -0.52916 q 0,-1.71152 0.396872,-2.52181 0.396875,-0.81028 1.347719,-1.20716 -0.950844,-0.3886 -1.347719,-1.19889 -0.396872,-0.81028 -0.396872,-2.5218 v -0.52917 q 0,-1.2485 -0.305925,-1.57923 -0.297656,-0.33072 -1.066599,-0.33072 h -0.256315 v -1.08314 h 0.661456 q 1.190625,0 1.711521,0.64492 0.520898,0.63665 0.520898,2.36471 v 0.80202 q 0,1.39732 0.363802,2.08359 0.3638,0.67799 1.347719,0.67799 z m 5.746406,-8.12766 q 1.852081,1.39733 2.811193,3.24114 0.959112,1.83555 0.959112,3.91087 0,2.05878 -0.96738,3.91086 -0.959112,1.85208 -2.802925,3.24941 l -0.51263,-0.71107 q 1.513083,-1.33945 2.174542,-2.84426 0.669723,-1.51308 0.669723,-3.62148 0,-2.17454 -0.68626,-3.63801 -0.686263,-1.46347 -2.158005,-2.78639 z m 12.493273,3.13366 q 0.42168,0 0.71107,0.28938 0.28938,0.28112 0.28938,0.69453 0,0.42168 -0.28938,0.7028 -0.28939,0.28112 -0.71107,0.28112 -0.41341,0 -0.69453,-0.28112 -0.28112,-0.28938 -0.28112,-0.7028 0,-0.41341 0.28112,-0.69453 0.28112,-0.28938 0.69453,-0.28938 z m 0.0165,8.96274 q -0.42995,-0.0496 -0.71107,-0.35553 -0.28112,-0.30593 -0.28112,-0.69453 0,-0.42168 0.27285,-0.71107 0.27285,-0.28939 0.68626,-0.28939 0.46302,0 0.80202,0.38034 0.339,0.37207 0.339,0.90124 0,1.62057 -1.80247,2.53007 l -0.3142,-0.59531 q 1.00873,-0.49609 1.00873,-1.16582 z"
         id="path135"
         style="font-size:16.9333px;font-family:'Andale Mono';-inkscape-font-specification:'Andale Mono, Normal';fill:#ffffff;stroke-width:2.11667" />
    </clipPath>
  </defs>
  <g
     id="g28"
     clip-path="url(#clipPath83)"
     transform="translate(0,-3.2107843)">
    <rect
       style="fill:#1f1f1f;fill-opacity:1;stroke-width:2.8432"
       id="rect17"
       width="296.99915"
       height="209.99994"
       x="0.00013268997"
       y="3.0305386" />
    <g
       id="text4"
       clip-path="none"
       style="font-size:16.9333px;font-family:'Andale Mono';-inkscape-font-specification:'Andale Mono, Normal';fill:#747b85;stroke-width:2.11667"
       aria-label="42&#10;43&#10;44&#10;45&#10;46&#10;47&#10;48&#10;49&#10;50">
      <path
         d="m 26.071545,29.511979 h -1.438669 v 2.695438 h -1.355987 v -2.695438 h -5.076682 v -1.033526 l 4.605394,-7.937485 h 1.827275 v 7.788657 h 1.438669 z m -2.794656,-1.182354 v -6.449206 l -3.704159,6.449206 z m 12.195614,3.877792 H 29.05637 v -0.983918 q 2.439123,-2.720242 3.166725,-3.646282 0.727603,-0.92604 1.182355,-1.94303 0.454752,-1.01699 0.454752,-2.025712 0,-0.975649 -0.595312,-1.537887 -0.587043,-0.562239 -1.653642,-0.562239 -0.818553,0 -2.199345,0.504361 l -0.190169,-1.165818 q 1.2485,-0.529166 2.612755,-0.529166 1.562693,0 2.513537,0.884699 0.959113,0.876431 0.959113,2.348173 0,1.050063 -0.496093,2.083589 -0.487824,1.033527 -1.256768,1.984371 -0.768944,0.950845 -2.993093,3.406504 h 4.911318 z"
         id="path124" />
      <path
         d="m 26.071545,50.678604 h -1.438669 v 2.695438 h -1.355987 v -2.695438 h -5.076682 v -1.033526 l 4.605394,-7.937485 h 1.827275 v 7.788657 h 1.438669 z M 23.276889,49.49625 V 43.047044 L 19.57273,49.49625 Z m 9.888783,-2.389514 q 1.066599,0.297656 1.71152,1.091404 0.64492,0.785481 0.64492,1.769398 0,1.537887 -1.19889,2.58795 -1.198891,1.041795 -2.827729,1.041795 -1.38906,0 -2.488732,-0.611847 l 0.264582,-1.116209 q 1.149282,0.537434 2.273759,0.537434 1.058331,0 1.80247,-0.653189 0.752408,-0.661457 0.752408,-1.694984 0,-1.01699 -0.802017,-1.653642 -0.802016,-0.636653 -2.124931,-0.636653 h -0.355533 v -1.116209 h 0.09922 q 1.273305,0 2.100126,-0.595311 0.826821,-0.603579 0.826821,-1.62057 0,-0.826821 -0.595311,-1.289841 -0.595311,-0.471288 -1.637106,-0.471288 -0.901235,0 -2.017444,0.487825 l -0.181901,-1.165818 q 1.124477,-0.51263 2.26549,-0.51263 1.562693,0 2.571415,0.826822 1.01699,0.818553 1.01699,2.108394 0,0.892967 -0.620116,1.670179 -0.611848,0.768944 -1.48001,0.967381 z"
         id="path125" />
      <path
         d="m 26.071545,71.845229 h -1.438669 v 2.695438 h -1.355987 v -2.695438 h -5.076682 v -1.033526 l 4.605394,-7.937485 h 1.827275 v 7.788657 h 1.438669 z m -2.794656,-1.182354 v -6.449206 l -3.704159,6.449206 z m 12.95629,1.182354 H 34.79451 v 2.695438 H 33.438523 V 71.845229 H 28.36184 v -1.033526 l 4.605395,-7.937485 h 1.827275 v 7.788657 h 1.438669 z m -2.794656,-1.182354 v -6.449206 l -3.70416,6.449206 z"
         id="path126" />
      <path
         d="m 26.071545,93.011854 h -1.438669 v 2.695438 h -1.355987 v -2.695438 h -5.076682 v -1.033526 l 4.605394,-7.937485 h 1.827275 V 91.8295 h 1.438669 z M 23.276889,91.8295 V 85.380294 L 19.57273,91.8295 Z m 7.672902,-3.084044 q 0.562238,-0.148827 1.099672,-0.148827 1.653643,0 2.612755,1.01699 0.959113,1.008722 0.959113,2.521805 0,1.587497 -1.116209,2.695437 -1.116208,1.099672 -2.720242,1.099672 -1.529619,0 -2.563146,-0.512629 l 0.272851,-1.149281 q 1.124477,0.471288 2.323368,0.471288 1.0666,0 1.719788,-0.686262 0.661457,-0.686262 0.661457,-1.918225 0,-1.165818 -0.620116,-1.794203 -0.620116,-0.628384 -1.595765,-0.628384 -0.711066,0 -1.405596,0.272851 l -0.810285,-0.372069 v -5.572776 h 5.332998 v 1.182355 h -4.150643 z"
         id="path127" />
      <path
         d="m 26.071545,114.17848 h -1.438669 v 2.69544 h -1.355987 v -2.69544 h -5.076682 v -1.03353 l 4.605394,-7.93748 h 1.827275 v 7.78865 h 1.438669 z m -2.794656,-1.18236 v -6.4492 l -3.704159,6.4492 z m 7.07759,-2.19934 q 1.091404,-0.8847 2.372977,-0.8847 1.480011,0 2.463928,0.95085 0.992185,0.94257 0.992185,2.43912 0,1.64537 -0.87643,2.72024 -0.876431,1.07487 -2.339904,1.07487 -1.868616,0 -2.960021,-1.71152 -1.091404,-1.71979 -1.091404,-4.20025 0,-2.64583 1.132745,-4.4235 1.141014,-1.77766 3.117117,-1.77766 1.364255,0 2.35644,0.40514 l -0.214973,1.20716 q -1.149282,-0.42168 -2.100126,-0.42168 -1.347719,0 -2.100126,1.28984 -0.752408,1.28984 -0.752408,3.33209 z m 0.04134,1.16582 q 0,1.49654 0.702799,2.72024 0.702798,1.2237 1.769397,1.2237 0.901235,0 1.38906,-0.66146 0.487824,-0.66146 0.487824,-1.82728 0,-1.07486 -0.537433,-1.69498 -0.537434,-0.62012 -1.513083,-0.62012 -1.265037,0 -2.298564,0.8599 z"
         id="path128" />
      <path
         d="m 26.071545,135.3451 h -1.438669 v 2.69544 h -1.355987 v -2.69544 h -5.076682 v -1.03352 l 4.605394,-7.93749 h 1.827275 v 7.78866 h 1.438669 z m -2.794656,-1.18235 v -6.44921 l -3.704159,6.44921 z m 12.650366,-6.82128 -4.621931,10.69907 h -1.38906 l 4.555785,-10.48409 h -5.465288 v -1.18236 h 6.920494 z"
         id="path129" />
      <path
         d="m 26.071545,156.51173 h -1.438669 v 2.69544 h -1.355987 v -2.69544 h -5.076682 v -1.03353 l 4.605394,-7.93748 h 1.827275 v 7.78865 h 1.438669 z m -2.794656,-1.18236 v -6.4492 l -3.704159,6.4492 z m 10.335266,-2.5218 q 1.190623,0.34726 1.843812,1.18235 0.661457,0.83509 0.661457,1.9513 0,1.60404 -1.0666,2.54661 -1.058331,0.94258 -2.612755,0.94258 -1.628838,0 -2.678901,-0.95085 -1.041795,-0.95084 -1.041795,-2.5218 0,-1.10794 0.677994,-1.9513 0.677993,-0.84336 1.89342,-1.19889 -0.96738,-0.24805 -1.554424,-0.95084 -0.578775,-0.71107 -0.578775,-1.5875 0,-1.12448 0.892967,-2.03398 0.892967,-0.91777 2.356441,-0.91777 1.446937,0 2.389514,0.9095 0.950844,0.9095 0.950844,2.04225 0,0.85162 -0.595311,1.57096 -0.595311,0.71107 -1.537888,0.96738 z m -1.207159,-0.56224 q 0.04134,0 0.396874,-0.0992 0.355534,-0.0992 0.60358,-0.23978 0.256315,-0.14882 0.471288,-0.37206 0.214974,-0.22325 0.347265,-0.5209 0.132291,-0.30593 0.132291,-0.678 0,-0.79374 -0.570506,-1.31464 -0.570507,-0.52917 -1.380792,-0.52917 -0.78548,0 -1.347719,0.53744 -0.562238,0.53743 -0.562238,1.30637 0,0.48783 0.198437,0.85163 0.206705,0.3638 0.504361,0.58704 0.305924,0.22325 0.69453,0.34727 0.396874,0.12402 0.512629,0.12402 z m 0,1.15755 q -2.26549,0.66146 -2.26549,2.48873 0,1.0666 0.686262,1.71152 0.686261,0.63666 1.612301,0.63666 0.959113,0 1.612302,-0.62839 0.661457,-0.63665 0.661457,-1.71979 0,-0.81855 -0.454752,-1.46347 -0.454752,-0.65319 -1.85208,-1.02526 z"
         id="path130" />
      <path
         d="m 26.071545,177.67835 h -1.438669 v 2.69544 h -1.355987 v -2.69544 h -5.076682 v -1.03352 l 4.605394,-7.93749 h 1.827275 v 7.78866 h 1.438669 z M 23.276889,176.496 v -6.44921 L 19.57273,176.496 Z m 11.385329,-1.72806 q -1.008722,0.8847 -2.372977,0.8847 -1.48001,0 -2.472195,-0.94257 -0.983918,-0.95085 -0.983918,-2.4474 0,-1.60403 0.942576,-2.69543 0.950845,-1.09967 2.447391,-1.09967 1.827276,0 2.852534,1.67017 1.025258,1.67018 1.025258,4.2416 0,2.57141 -1.207159,4.39042 -1.198891,1.81074 -3.216335,1.81074 -1.355986,0 -2.348172,-0.41341 l 0.214974,-1.19889 q 1.141013,0.42167 2.100126,0.42167 1.372523,0 2.191076,-1.33118 0.826821,-1.33118 0.826821,-3.29075 z m -0.03307,-1.16581 q 0,-1.57097 -0.636652,-2.75332 -0.636652,-1.19062 -1.670179,-1.19062 -0.934308,0 -1.496546,0.69453 -0.553971,0.68626 -0.553971,1.7942 0,1.01699 0.562239,1.67018 0.570506,0.64492 1.488278,0.64492 1.265037,0 2.199345,-0.77721 z"
         id="path131" />
      <path
         d="m 20.788157,194.57858 q 0.562239,-0.14883 1.099673,-0.14883 1.653642,0 2.612755,1.01699 0.959112,1.00873 0.959112,2.52181 0,1.5875 -1.116208,2.69544 -1.116209,1.09967 -2.720242,1.09967 -1.52962,0 -2.563146,-0.51263 l 0.272851,-1.14928 q 1.124477,0.47129 2.323368,0.47129 1.066599,0 1.719788,-0.68627 0.661457,-0.68626 0.661457,-1.91822 0,-1.16582 -0.620116,-1.7942 -0.620116,-0.62839 -1.595765,-0.62839 -0.711066,0 -1.405596,0.27285 l -0.810285,-0.37207 v -5.57277 H 24.9388 v 1.18235 h -4.150643 z m 11.633376,-4.92785 q 1.852079,0 2.844265,1.59576 1.000454,1.5875 1.000454,4.46484 0,2.78638 -0.967381,4.42349 -0.967381,1.62884 -2.877338,1.62884 -1.843812,0 -2.844266,-1.5875 -1.000453,-1.5875 -1.000453,-4.46483 0,-2.79466 0.967381,-4.4235 0.975649,-1.6371 2.877338,-1.6371 z m 0,10.92231 q 1.223695,0 1.810738,-1.15755 0.595312,-1.16582 0.595312,-3.70416 0,-2.54661 -0.595312,-3.69589 -0.587043,-1.15755 -1.810738,-1.15755 -1.207159,0 -1.802471,1.18235 -0.595311,1.18235 -0.595311,3.67109 0,2.5218 0.587043,3.69589 0.595311,1.16582 1.810739,1.16582 z m -0.03307,-6.10195 q 0.520897,0 0.87643,0.36381 0.363802,0.35553 0.363802,0.87643 0,0.53743 -0.363802,0.92604 -0.363801,0.38033 -0.87643,0.38033 -0.504361,0 -0.868163,-0.38033 -0.355533,-0.38861 -0.355533,-0.92604 0,-0.52917 0.347265,-0.8847 0.355533,-0.35554 0.876431,-0.35554 z"
         id="path132" />
    </g>
    <g
       id="g45"
       clip-path="url(#clipPath114)"
       transform="translate(20.330245,-0.10443334)">
      <rect
         style="fill:#71c6b0;fill-opacity:1;stroke-width:2.11667"
         id="rect44"
         width="53.739353"
         height="20.106564"
         x="255.35333"
         y="58.778011" />
      <rect
         style="fill:#6fbffa;fill-opacity:1;stroke-width:2.11667"
         id="rect43"
         width="75.30822"
         height="22.482792"
         x="116.0697"
         y="57.132927" />
      <rect
         style="fill:#669ad1;fill-opacity:1;stroke-width:2.11667"
         id="rect45"
         width="56.846737"
         height="23.21394"
         x="54.836079"
         y="56.950138" />
      <rect
         style="fill:#669ad1;fill-opacity:1;stroke-width:1.76808"
         id="rect45-0"
         width="39.664764"
         height="23.21394"
         x="213.1833"
         y="57.189922" />
      <rect
         style="fill:#d5d5d5;fill-opacity:1;stroke-width:2.11667"
         id="rect49"
         width="17.926517"
         height="16.485994"
         x="194.1506"
         y="60.831738" />
    </g>
    <g
       id="g50"
       clip-path="url(#clipPath113)"
       transform="translate(20.020547,-0.33670674)">
      <rect
         style="fill:#71c6b0;fill-opacity:1;stroke-width:2.39656"
         id="rect44-2"
         width="68.891159"
         height="20.106564"
         x="238.3786"
         y="79.818047" />
      <rect
         style="fill:#6fbffa;fill-opacity:1;stroke-width:1.87049"
         id="rect43-4"
         width="58.809589"
         height="22.482792"
         x="112.75758"
         y="79.097206" />
      <rect
         style="fill:#669ad1;fill-opacity:1;stroke-width:2.11667"
         id="rect45-1"
         width="56.846737"
         height="23.21394"
         x="52.993111"
         y="78.904739" />
      <rect
         style="fill:#669ad1;fill-opacity:1;stroke-width:1.75323"
         id="rect45-1-1"
         width="39.001278"
         height="23.21394"
         x="194.43111"
         y="78.497871" />
      <rect
         style="fill:#d5d5d5;fill-opacity:1;stroke-width:2.11667"
         id="rect49-9"
         width="17.926517"
         height="16.485994"
         x="174.25772"
         y="82.007622" />
    </g>
    <g
       id="g54"
       clip-path="url(#clipPath112)"
       transform="translate(0,-0.69682019)">
      <rect
         style="fill:#669ad1;fill-opacity:1;stroke-width:2.62586"
         id="rect45-1-1-3"
         width="87.487045"
         height="23.21394"
         x="53.527378"
         y="15.603091" />
      <rect
         style="fill:#e1e1b3;fill-opacity:1;stroke-width:2.11667"
         id="rect52"
         width="95.288002"
         height="22.559353"
         x="144.78389"
         y="15.668934" />
      <rect
         style="fill:#4b97fe;fill-opacity:1;stroke-width:2.11667"
         id="rect53"
         width="6.7341352"
         height="19.865698"
         x="240.74532"
         y="17.352468" />
      <rect
         style="fill:#aadafb;fill-opacity:1;stroke-width:2.11667"
         id="rect54"
         width="52.862957"
         height="20.875818"
         x="249.16298"
         y="16.679052" />
    </g>
    <g
       id="g78"
       clip-path="url(#clipPath135)"
       transform="translate(-0.64536719,19.043361)">
      <rect
         style="fill:#cc76d1;fill-opacity:1;stroke-width:2.11667"
         id="rect76"
         width="8.4176683"
         height="18.182165"
         x="77.442551"
         y="146.98456" />
      <rect
         style="fill:#f9d949;fill-opacity:1;stroke-width:2.11667"
         id="rect77"
         width="9.4277878"
         height="19.865696"
         x="87.207047"
         y="145.97444" />
      <rect
         style="fill:#d5d5d5;fill-opacity:1;stroke-width:2.11667"
         id="rect78"
         width="7.7442546"
         height="18.518871"
         x="98.655075"
         y="145.97444" />
    </g>
    <g
       id="g133"
       transform="translate(-0.6453672,19.043361)"
       clip-path="url(#clipPath134)">
      <rect
         style="fill:#aadafb;fill-opacity:1;stroke-width:2.11667"
         id="rect69"
         width="34.680786"
         height="19.528986"
         x="116.16382"
         y="127.11886" />
      <rect
         style="fill:#d5d5d5;fill-opacity:1;stroke-width:2.11667"
         id="rect70"
         width="4.3771882"
         height="16.498634"
         x="151.18132"
         y="128.12898" />
      <rect
         style="fill:#e1e1b3;fill-opacity:1;stroke-width:2.11667"
         id="rect71"
         width="31.987141"
         height="16.835337"
         x="157.91545"
         y="126.44545" />
      <rect
         style="fill:#488fef;fill-opacity:1;stroke-width:2.11667"
         id="rect72"
         width="7.407548"
         height="17.508751"
         x="190.91272"
         y="126.10874" />
      <rect
         style="fill:#6fbffa;fill-opacity:1;stroke-width:2.11667"
         id="rect73"
         width="49.495895"
         height="19.528992"
         x="200.00381"
         y="126.44545" />
      <rect
         style="fill:#488fef;fill-opacity:1;stroke-width:2.11667"
         id="rect74"
         width="8.0809631"
         height="18.518866"
         x="250.1731"
         y="127.11886" />
      <rect
         style="fill:#d5d5d5;fill-opacity:1;stroke-width:2.11667"
         id="rect75"
         width="7.0708418"
         height="19.192284"
         x="260.94772"
         y="126.44545" />
    </g>
    <g
       id="g132"
       transform="translate(-0.6453672,19.043361)"
       clip-path="url(#clipPath133)">
      <rect
         style="fill:#aadafb;fill-opacity:1;stroke-width:2.11667"
         id="rect60"
         width="34.007381"
         height="19.865698"
         x="75.085602"
         y="105.23293" />
      <rect
         style="fill:#d5d5d5;fill-opacity:1;stroke-width:2.11667"
         id="rect61"
         width="4.3771877"
         height="17.508751"
         x="110.1031"
         y="104.89622" />
      <rect
         style="fill:#e1e1b3;fill-opacity:1;stroke-width:2.11667"
         id="rect62"
         width="22.222645"
         height="17.172045"
         x="117.17394"
         y="106.24304" />
      <rect
         style="fill:#f9d949;fill-opacity:1;stroke-width:2.11667"
         id="rect63"
         width="9.427784"
         height="17.508751"
         x="140.40671"
         y="105.90634" />
      <rect
         style="fill:#c3947c;fill-opacity:1;stroke-width:2.11667"
         id="rect64"
         width="56.230026"
         height="21.212524"
         x="151.18132"
         y="103.8861" />
      <rect
         style="fill:#d5d5d5;fill-opacity:1;stroke-width:2.11667"
         id="rect65"
         width="9.7644949"
         height="18.855577"
         x="209.09489"
         y="104.89622" />
      <rect
         style="fill:#cc76d1;fill-opacity:1;stroke-width:2.11667"
         id="rect66"
         width="18.855577"
         height="21.549231"
         x="231.31754"
         y="104.2228" />
      <rect
         style="fill:#669ad1;fill-opacity:1;stroke-width:2.11667"
         id="rect67"
         width="25.926418"
         height="20.202404"
         x="255.22371"
         y="103.54939" />
      <rect
         style="fill:#cc76d1;fill-opacity:1;stroke-width:2.11667"
         id="rect68"
         width="11.44803"
         height="21.549231"
         x="290.24118"
         y="102.20257" />
    </g>
    <rect
       style="fill:#488fef;fill-opacity:1;stroke-width:2.11667"
       id="rect81"
       width="16.835337"
       height="20.53911"
       x="51.179424"
       y="184.35901"
       clip-path="url(#clipPath81)"
       transform="translate(-0.13381741,1.5260008)" />
  </g>
</svg>
